<svg width="125" height="73" viewBox="0 0 125 73" fill="none" xmlns="http://www.w3.org/2000/svg">
<path d="M9.41538 62.048V64.096H8.21538V66H5.99138V64.096H0.695375V62.048L4.42338 54.8H6.79138L3.07938 62.048H5.99138V59.392H8.21538V62.048H9.41538ZM12.7446 65.808C12.478 66.0747 12.158 66.208 11.7846 66.208C11.4113 66.208 11.0913 66.0747 10.8246 65.808C10.558 65.5413 10.4246 65.2213 10.4246 64.848C10.4246 64.4747 10.558 64.1547 10.8246 63.888C11.0913 63.6213 11.4113 63.488 11.7846 63.488C12.158 63.488 12.478 63.6213 12.7446 63.888C13.0113 64.1547 13.1446 64.4747 13.1446 64.848C13.1446 65.2213 13.0113 65.5413 12.7446 65.808ZM19.5699 59.344C20.3272 59.568 20.9405 59.9627 21.4099 60.528C21.8899 61.0827 22.1299 61.7547 22.1299 62.544C22.1299 63.696 21.7405 64.5973 20.9619 65.248C20.1939 65.8987 19.2499 66.224 18.1299 66.224C17.2552 66.224 16.4712 66.0267 15.7779 65.632C15.0952 65.2267 14.5992 64.6347 14.2899 63.856L16.1779 62.768C16.4552 63.632 17.1059 64.064 18.1299 64.064C18.6952 64.064 19.1325 63.9307 19.4419 63.664C19.7619 63.3867 19.9219 63.0133 19.9219 62.544C19.9219 62.0853 19.7619 61.7173 19.4419 61.44C19.1325 61.1627 18.6952 61.024 18.1299 61.024H17.6499L16.8019 59.744L19.0099 56.864H14.6259V54.8H21.6659V56.624L19.5699 59.344Z" fill="black"/>
<path d="M38 51L40.0206 57.2188H46.5595L41.2694 61.0623L43.2901 67.2812L38 63.4377L32.7099 67.2812L34.7306 61.0623L29.4405 57.2188H35.9794L38 51Z" fill="#EA8632"/>
<path d="M57.5 51L59.5206 57.2188H66.0595L60.7694 61.0623L62.7901 67.2812L57.5 63.4377L52.2099 67.2812L54.2306 61.0623L48.9405 57.2188H55.4794L57.5 51Z" fill="#EA8632"/>
<path d="M77 51L79.0206 57.2188H85.5595L80.2694 61.0623L82.2901 67.2812L77 63.4377L71.7099 67.2812L73.7306 61.0623L68.4405 57.2188H74.9794L77 51Z" fill="#EA8632"/>
<path d="M96.5 51L98.5206 57.2188H105.06L99.7694 61.0623L101.79 67.2812L96.5 63.4377L91.2099 67.2812L93.2306 61.0623L87.9405 57.2188H94.4794L96.5 51Z" fill="#EA8632"/>
<path d="M116 52.2135L117.664 57.3347L117.748 57.5938H118.021H123.405L119.049 60.7589L118.829 60.9191L118.913 61.1782L120.577 66.2994L116.22 63.1343L116 62.9742L115.78 63.1343L111.423 66.2994L113.087 61.1782L113.171 60.9191L112.951 60.7589L108.595 57.5938H113.979H114.252L114.336 57.3347L116 52.2135Z" stroke="#EA8632" stroke-width="0.75"/>
<path d="M110.71 67.2812L116 63.4377V51L113.979 57.2188H107.441L112.731 61.0623L110.71 67.2812Z" fill="#EA8632"/>
<g clip-path="url(#clip0_3088_434)">
<path d="M16.8167 1.49489H36.1833C36.6344 1.49489 37 1.86053 37 2.31156V6.12C37 6.62729 36.7799 7.10761 36.3966 7.44L25.5667 16.5H36.1833C36.6344 16.5 37 16.859 37 17.31V21.6822C37 22.1332 36.6344 22.4989 36.1833 22.4989H16.8167C16.3656 22.4989 16 22.1332 16 21.6822V17.88C16 17.3727 16.2201 16.8924 16.6034 16.56L27.4333 7.5H16.8167C16.3656 7.5 16 7.12603 16 6.675V2.31156C16 1.86053 16.3656 1.49489 16.8167 1.49489ZM50.5 0.75C52.7393 0.75 54.7357 1.25357 56.4024 2.1738C58.0691 3.09403 59.406 4.43093 60.3262 6.0976C61.2464 7.76426 61.75 9.7607 61.75 12C61.75 14.2393 61.2464 16.2357 60.3262 17.9024C59.406 19.5691 58.0691 20.906 56.4024 21.8262C54.7357 22.7464 52.7393 23.25 50.5 23.25C48.2607 23.25 46.2643 22.7464 44.5976 21.8262C42.9309 20.906 41.594 19.5691 40.6738 17.9024C39.7536 16.2357 39.25 14.2393 39.25 12C39.25 9.7607 39.7536 7.76426 40.6738 6.0976C41.594 4.43093 42.9309 3.09403 44.5976 2.1738C46.2643 1.25357 48.2607 0.75 50.5 0.75ZM50.5 6.75C49.4288 6.75 48.4884 6.97627 47.7106 7.39699C46.9329 7.81771 46.3177 8.43287 45.897 9.21065C45.4763 9.98843 45.25 10.9288 45.25 12C45.25 13.0712 45.4763 14.0116 45.897 14.7893C46.3177 15.5671 46.9329 16.1823 47.7106 16.603C48.4884 17.0237 49.4288 17.25 50.5 17.25C51.5712 17.25 52.5116 17.0237 53.2893 16.603C54.0671 16.1823 54.6823 15.5671 55.103 14.7893C55.5237 14.0116 55.75 13.0712 55.75 12C55.75 10.9288 55.5237 9.98843 55.103 9.21065C54.6823 8.43287 54.0671 7.81771 53.2893 7.39699C52.5116 6.97627 51.5712 6.75 50.5 6.75ZM74.5 0.75C76.7393 0.75 78.7357 1.25357 80.4024 2.1738C82.0691 3.09403 83.406 4.43093 84.3262 6.0976C85.2464 7.76426 85.75 9.7607 85.75 12C85.75 14.2393 85.2464 16.2357 84.3262 17.9024C83.406 19.5691 82.0691 20.906 80.4024 21.8262C78.7357 22.7464 76.7393 23.25 74.5 23.25C72.2607 23.25 70.2643 22.7464 68.5976 21.8262C66.9309 20.906 65.594 19.5691 64.6738 17.9024C63.7536 16.2357 63.25 14.2393 63.25 12C63.25 9.7607 63.7536 7.76426 64.6738 6.0976C65.594 4.43093 66.9309 3.09403 68.5976 2.1738C70.2643 1.25357 72.2607 0.75 74.5 0.75ZM74.5 6.75C73.4288 6.75 72.4884 6.97627 71.7106 7.39699C70.9329 7.81771 70.3177 8.43287 69.897 9.21065C69.4763 9.98843 69.25 10.9288 69.25 12C69.25 13.0712 69.4763 14.0116 69.897 14.7893C70.3177 15.5671 70.9329 16.1823 71.7106 16.603C72.4884 17.0237 73.4288 17.25 74.5 17.25C75.5712 17.25 76.5116 17.0237 77.2893 16.603C78.0671 16.1823 78.6823 15.5671 79.103 14.7893C79.5237 14.0116 79.75 13.0712 79.75 12C79.75 10.9288 79.5237 9.98843 79.103 9.21065C78.6823 8.43287 78.0671 7.81771 77.2893 7.39699C76.5116 6.97627 75.5712 6.75 74.5 6.75ZM109.003 2.31416V21.6819C109.003 22.1329 108.637 22.4986 108.186 22.4986H104.38C103.873 22.4986 103.392 22.2785 103.06 21.8953L94 11.0666V21.6819C94 22.1329 93.6261 22.4986 93.175 22.4986H88.8141C88.3631 22.4986 87.9974 22.1329 87.9974 21.6819V2.31416C87.9974 1.8631 88.3631 1.49745 88.8141 1.49745H92.62C93.1274 1.49745 93.6076 1.71764 93.94 2.10095L103 12.9334V2.31416C103 1.8631 103.359 1.49745 103.81 1.49745H108.186C108.637 1.49745 109.003 1.8631 109.003 2.31416Z" fill="url(#paint0_linear_3088_434)"/>
</g>
<defs>
<linearGradient id="paint0_linear_3088_434" x1="87.9311" y1="12" x2="36.285" y2="12" gradientUnits="userSpaceOnUse">
<stop stop-color="#6339F5"/>
<stop offset="1" stop-color="#3D3F55"/>
</linearGradient>
<clipPath id="clip0_3088_434">
<rect width="93" height="24" fill="white" transform="translate(16)"/>
</clipPath>
</defs>
</svg>
