<svg width="89" height="16" viewBox="0 0 89 16" fill="none" xmlns="http://www.w3.org/2000/svg">
<path fill-rule="evenodd" clip-rule="evenodd" d="M85.3086 13.0226C84.0168 13.0226 83.0777 12.4042 82.6409 11.4678V12.8586H79.3366V0H82.6409V5.33401C83.1278 4.515 83.9998 3.82974 85.3251 3.82974C87.3211 3.82974 88.9985 5.31702 88.9985 8.37653V8.50975C88.9985 11.5693 87.3046 13.0231 85.3086 13.0231V13.0226ZM85.6437 8.34255C85.6437 6.9386 85.0737 6.26979 84.0834 6.26979C83.1102 6.26979 82.5567 7.00548 82.5567 8.34255V8.47576C82.5567 9.82982 83.0937 10.5156 84.1005 10.5156C85.0896 10.5156 85.6431 9.81337 85.6431 8.47576V8.34255H85.6437ZM74.7851 11.8023C74.416 12.4036 73.6446 13.022 72.2181 13.022C70.6419 13.022 69.2323 12.2529 69.2323 10.3808C69.2323 8.325 70.9098 7.52298 73.9456 7.52298H74.7009V7.37223C74.7009 6.63654 74.5661 6.10149 73.6771 6.10149C72.9223 6.10149 72.6879 6.58665 72.6373 7.03782H69.5509C69.6851 4.89819 71.362 3.81165 73.879 3.81165C76.4284 3.81165 77.9711 4.8483 77.9711 7.15459V12.8044H74.7846V11.8017L74.7851 11.8023ZM74.7015 9.29477H73.9967C72.8887 9.29477 72.4865 9.51241 72.4865 10.1308C72.4865 10.5485 72.8051 10.8155 73.4097 10.8155C74.164 10.8155 74.7015 10.3983 74.7015 9.74649V9.29477ZM60.789 0.853551H64.2193V9.87971H68.5265V12.8586H60.789V0.853551Z" fill="#C20012"/>
<path fill-rule="evenodd" clip-rule="evenodd" d="M51.9386 12.8108V7.74264C51.9386 6.85675 51.62 6.40503 50.8305 6.40503C50.0086 6.40503 49.5228 6.89019 49.5228 7.92629V12.8113H46.2174V4.204H49.5228V5.41991C50.0086 4.50003 50.9483 3.78188 52.4244 3.78188C54.0858 3.78188 55.2423 4.83498 55.2423 7.00805V12.8119H51.9386V12.8108ZM39.8069 15.9997C36.7711 15.9997 35.3451 14.7624 35.1102 12.6902H38.3815C38.4992 13.2252 38.8012 13.7263 39.824 13.7263C41.0822 13.7263 41.5014 12.9906 41.5014 12.0559V10.7018C41.0657 11.5373 40.1425 12.239 38.8343 12.239C36.8383 12.239 35.1608 10.8016 35.1608 8.09404V7.96028C35.1608 5.33604 36.8212 3.76434 38.8172 3.76434C40.1926 3.76434 41.0145 4.33282 41.5014 5.21927V4.204H44.8063V12.0049C44.8063 14.6127 43.0777 16.0002 39.8064 16.0002L39.8069 15.9997ZM41.6021 7.97673C41.6021 6.90609 41.0487 6.20439 40.0595 6.20439C39.0527 6.20439 38.5157 6.89019 38.5157 7.99317V8.12748C38.5157 9.19648 39.0527 9.89872 40.0595 9.89872C41.0322 9.89872 41.6021 9.19648 41.6021 8.09404V7.97727V7.97673ZM32.5013 3.36305C31.4775 3.36305 30.7062 2.66081 30.7062 1.70858C30.7062 0.738809 31.4775 0.0371094 32.5013 0.0371094C33.507 0.0371094 34.2789 0.739357 34.2789 1.70858C34.2789 2.66081 33.507 3.36305 32.5013 3.36305ZM26.1877 7.10728C28.7206 7.40824 29.8952 8.00962 29.8952 9.89872C29.8952 12.0559 28.2513 12.9741 25.7696 12.9741C23.2025 12.9741 21.6923 12.2171 21.6428 10.2446H24.6621C24.7633 10.8131 24.9977 10.852 25.7525 10.852C26.3907 10.852 26.6751 10.601 26.6751 10.2337C26.6751 9.84884 26.306 9.64874 25.1314 9.49799C22.7668 9.23047 21.7264 8.59455 21.7264 6.72354C21.7264 4.71711 23.488 3.76379 25.6348 3.76379C27.9168 3.76379 29.443 4.51647 29.6444 6.65611H26.6751C26.5745 6.1386 26.2889 5.83709 25.6848 5.83709C25.0813 5.83709 24.8128 6.10407 24.8128 6.43847C24.8128 6.83921 25.215 7.00696 26.1882 7.10673L26.1877 7.10728ZM16.6611 10.7353C17.5832 10.7353 17.9353 10.596 18.0365 10.0944H21.1229C20.8544 12.1009 19.3283 12.9747 16.5439 12.9747C13.7419 12.9747 11.6788 11.3865 11.6788 8.49478V8.36157C11.6788 5.51914 13.8597 3.76434 16.5439 3.76434C19.0097 3.76434 21.1064 5.16938 21.1064 8.31113V9.1137H15.0178C15.1014 10.1668 15.7225 10.7353 16.6616 10.7353H16.6611ZM17.9193 7.39179C17.8858 6.45601 17.4324 5.88753 16.5439 5.88753C15.7385 5.88753 15.168 6.40558 15.0337 7.39179H17.9193ZM4.57899 12.8113H0V0.778827H4.57899C8.87356 0.778827 11.0544 2.845 11.0544 6.63911V6.75643C11.0544 10.5675 8.80589 12.8113 4.57899 12.8113ZM7.09488 6.70654C7.09488 4.51702 5.94945 3.71445 4.10421 3.71445H3.48307V9.84939H4.12126C5.98246 9.84939 7.09488 8.93005 7.09488 6.8403V6.70709V6.70654ZM34.1452 12.8113H30.8575V4.204H34.1452V12.8113Z" fill="#101014"/>
</svg>
