<svg width="158" height="128" viewBox="0 0 158 128" fill="none" xmlns="http://www.w3.org/2000/svg">
<path fill-rule="evenodd" clip-rule="evenodd" d="M49.8924 1.58594C49.8924 1.03365 50.3401 0.585938 50.8924 0.585938H71.6799C72.2321 0.585938 72.6799 1.03365 72.6799 1.58594V4.99396C72.6799 5.37426 72.4641 5.72165 72.1233 5.89028L68.5963 7.63508V12.2633C68.5963 12.8156 68.1486 13.2633 67.5963 13.2633C67.044 13.2633 66.5963 12.8156 66.5963 12.2633V7.0141C66.5963 6.6338 66.812 6.28641 67.1529 6.11778L70.6799 4.37299V2.58594H51.8924V4.39473L55.1414 6.13228C55.4667 6.30626 55.6698 6.6452 55.6698 7.0141V12.2633C55.6698 12.8156 55.2221 13.2633 54.6698 13.2633C54.1175 13.2633 53.6698 12.8156 53.6698 12.2633V7.61333L50.4208 5.87578C50.0955 5.70181 49.8924 5.36287 49.8924 4.99396V1.58594ZM54.6698 30.3518C55.2221 30.3518 55.6698 30.7996 55.6698 31.3518V45.0312C55.6698 45.5835 55.2221 46.0312 54.6698 46.0312C54.1175 46.0312 53.6698 45.5835 53.6698 45.0312V31.3518C53.6698 30.7996 54.1175 30.3518 54.6698 30.3518ZM67.5963 30.3518C68.1486 30.3518 68.5963 30.7996 68.5963 31.3518V45.0312C68.5963 45.5835 68.1486 46.0312 67.5963 46.0312C67.044 46.0312 66.5963 45.5835 66.5963 45.0312V31.3518C66.5963 30.7996 67.044 30.3518 67.5963 30.3518ZM54.6698 63.0183C55.2221 63.0183 55.6698 63.466 55.6698 64.0183V77.64C55.6698 78.1923 55.2221 78.64 54.6698 78.64C54.1176 78.64 53.6698 78.1923 53.6698 77.64V64.0183C53.6698 63.466 54.1176 63.0183 54.6698 63.0183ZM67.5963 63.0183C68.1486 63.0183 68.5963 63.466 68.5963 64.0183V77.64C68.5963 78.1923 68.1486 78.64 67.5963 78.64C67.044 78.64 66.5963 78.1923 66.5963 77.64V64.0183C66.5963 63.466 67.044 63.0183 67.5963 63.0183ZM54.6698 95.7281C55.2221 95.7281 55.6698 96.1759 55.6698 96.7281V119.839C55.6698 120.982 55.3868 122.215 54.3513 123.503C53.8414 124.137 53.1596 124.771 52.263 125.414H69.5422C68.862 124.892 68.3196 124.342 67.894 123.772C66.8895 122.426 66.5963 121.047 66.5963 119.839V96.7281C66.5963 96.1759 67.044 95.7281 67.5963 95.7281C68.1486 95.7281 68.5963 96.1759 68.5963 96.7281V119.839C68.5963 120.702 68.7974 121.638 69.4969 122.575C70.2074 123.527 71.4907 124.559 73.7965 125.487C74.2408 125.665 74.496 126.134 74.405 126.604C74.3139 127.075 73.9022 127.414 73.4232 127.414H48.579C48.1142 127.414 47.7107 127.094 47.6051 126.642C47.4995 126.189 47.7196 125.723 48.1363 125.518C50.6712 124.266 52.0485 123.175 52.7926 122.249C53.5042 121.364 53.6698 120.591 53.6698 119.839V96.7281C53.6698 96.1758 54.1176 95.7281 54.6698 95.7281Z" fill="black"/>
<g opacity="0.1">
<path d="M66.6738 126.414H54.6731H48.5822C53.7758 123.85 54.6731 121.734 54.6731 119.839L54.6731 106.048L54.6731 96.7281H67.5996V106.048V119.839C67.5996 121.911 68.5883 124.468 73.4265 126.414H66.6738Z" fill="#BF5002"/>
<path d="M54.6731 64.0183V77.64H67.5996V64.0183H54.6731Z" fill="#BF5002"/>
<path d="M54.6731 31.3518V45.0312H67.5996V31.3518H54.6731Z" fill="#BF5002"/>
<path d="M54.6731 7.0141V12.2633H67.5996V7.0141L71.6832 4.99396V1.58594H50.8957V4.99396L54.6731 7.0141Z" fill="#BF5002"/>
</g>
<path fill-rule="evenodd" clip-rule="evenodd" d="M113.879 68.4381C114.431 68.4381 114.879 68.8858 114.879 69.4381V84.6677C114.879 85.4877 114.672 86.3784 113.935 87.2958C113.744 87.5324 113.522 87.7671 113.263 88.0008H122.78C122.61 87.8259 122.457 87.6466 122.32 87.4634C121.606 86.5067 121.397 85.5229 121.397 84.6677V69.4381C121.397 68.8858 121.845 68.4381 122.397 68.4381C122.949 68.4381 123.397 68.8858 123.397 69.4381V84.6677C123.397 85.1779 123.514 85.7192 123.923 86.2671C124.343 86.8299 125.129 87.4773 126.61 88.0731C127.055 88.2519 127.31 88.7207 127.219 89.1909C127.128 89.6612 126.716 90.0008 126.237 90.0008H109.865C109.4 90.0008 108.997 89.6807 108.891 89.2281C108.785 88.7756 109.006 88.3099 109.422 88.1042C111.072 87.29 111.93 86.5976 112.376 86.0425C112.79 85.528 112.879 85.0969 112.879 84.6677V69.4381C112.879 68.8858 113.326 68.4381 113.879 68.4381Z" fill="black"/>
<path opacity="0.1" d="M88.9854 68.4632C92.7233 73.7937 100.778 74.1167 104.338 73.612C105.883 74.7415 107.369 75.3686 108.615 75.6925C110.041 75.9516 113.125 76.4698 114.058 76.4698V69.3099C116.087 69.5922 120.535 69.9873 122.09 69.3099V76.4698C122.707 76.7678 124.73 77.185 127.892 76.4698C129.705 76.4419 130.806 75.7764 131.13 75.4471C138.536 76.9152 142.416 73.5129 143.431 71.6283C153.634 71.4402 154.401 62.1039 153.509 57.4592C161.163 50.2712 153.658 38.3787 148.948 33.3309C149.482 23.72 141.68 18.4905 137.712 17.0771C137 11.0197 130.296 9.16892 127.032 9.00069C126.142 6.77965 122.894 2.19624 117.02 1.6309C111.146 1.06555 107.675 5.97195 106.674 8.49582C99.9099 8.73812 95.6232 14.3176 94.3253 17.0771C86.3154 20.0653 84.9804 27.2735 85.3141 30.5041C82.6741 34.3706 78.845 42.7254 84.649 45.2129H111.596L122.09 54.2863L112.374 63.7391H86.7218C86.9347 64.7118 87.6854 67.0185 88.9854 68.4632Z" fill="#BF5002"/>
<path fill-rule="evenodd" clip-rule="evenodd" d="M100.794 77.4379C100.645 77.0521 100.275 76.7976 99.861 76.7976H32.5323C32.2806 76.7976 32.0382 76.8925 31.8534 77.0633L21.4623 86.6704C21.2563 86.8608 21.1398 87.129 21.1412 87.4095C21.1426 87.6901 21.2617 87.9571 21.4695 88.1455L31.5409 97.2754C31.7249 97.4422 31.9643 97.5345 32.2125 97.5345H99.861C100.27 97.5345 100.637 97.286 100.789 96.9069C100.941 96.5277 100.847 96.0941 100.552 95.8118L91.2651 86.9309L100.532 78.5388C100.839 78.2613 100.943 77.8237 100.794 77.4379ZM97.267 78.7976L89.1261 86.1697C88.9202 86.3561 88.8012 86.6197 88.7974 86.8973C88.7936 87.175 88.9055 87.4417 89.1062 87.6337L97.3684 95.5345H32.5983L23.6221 87.3974L32.9237 78.7976H43.5108V87.4046C43.5108 87.9569 43.9585 88.4046 44.5108 88.4046C45.0631 88.4046 45.5108 87.9569 45.5108 87.4046V78.7976H97.267Z" fill="#BF5002"/>
<path fill-rule="evenodd" clip-rule="evenodd" d="M43.5212 44.7748C43.6699 44.389 44.0407 44.1345 44.4542 44.1345H111.783C112.035 44.1345 112.277 44.2294 112.462 44.4003L122.853 54.0073C123.059 54.1977 123.175 54.4659 123.174 54.7465C123.173 55.027 123.054 55.294 122.846 55.4824L112.774 64.6123C112.59 64.7791 112.351 64.8714 112.103 64.8714H44.4542C44.0457 64.8714 43.6782 64.6229 43.5261 64.2438C43.374 63.8646 43.4678 63.4311 43.7631 63.1487L53.0502 54.2678L43.783 45.8758C43.4765 45.5982 43.3724 45.1606 43.5212 44.7748ZM47.0483 46.1345L55.1892 53.5066C55.3951 53.693 55.5141 53.9566 55.5179 54.2343C55.5217 54.5119 55.4098 54.7787 55.2091 54.9706L46.9469 62.8714H111.717L120.693 54.7343L111.392 46.1345H100.804V54.7416C100.804 55.2938 100.357 55.7416 99.8045 55.7416C99.2522 55.7416 98.8045 55.2938 98.8045 54.7416V46.1345H47.0483Z" fill="#BF5002"/>
<path fill-rule="evenodd" clip-rule="evenodd" d="M79.8609 12.1122C79.7122 11.7264 79.3413 11.4719 78.9278 11.4719H11.599C11.3474 11.4719 11.105 11.5668 10.9202 11.7377L0.529076 21.3447C0.323097 21.5351 0.206573 21.8033 0.207947 22.0839C0.209328 22.3644 0.328468 22.6314 0.536308 22.8198L10.6077 31.9497C10.7916 32.1165 11.031 32.2088 11.2793 32.2088H78.9278C79.3363 32.2088 79.7038 31.9603 79.8559 31.5812C80.008 31.202 79.9142 30.7685 79.6189 30.4861L70.3318 21.6052L79.5991 13.2132C79.9056 12.9356 80.0096 12.498 79.8609 12.1122ZM76.3337 13.4719L68.1928 20.844C67.987 21.0304 67.8679 21.294 67.8642 21.5717C67.8604 21.8493 67.9722 22.1161 68.1729 22.308L76.4352 30.2088H11.6651L2.68885 22.0717L11.9905 13.4719H22.5776V22.079C22.5776 22.6312 23.0253 23.079 23.5776 23.079C24.1299 23.079 24.5776 22.6312 24.5776 22.079V13.4719H76.3337Z" fill="#BF5002"/>
<path fill-rule="evenodd" clip-rule="evenodd" d="M121.633 11.6912C122.173 11.8059 122.518 12.3369 122.403 12.8771C122.33 13.2242 122.169 13.5995 121.991 13.9542C121.805 14.3227 121.568 14.7296 121.303 15.1534C120.771 16.0016 120.094 16.9634 119.4 17.899C118.015 19.7681 116.523 21.5909 115.904 22.2895C115.538 22.7028 114.906 22.7409 114.492 22.3746C114.079 22.0084 114.041 21.3763 114.407 20.963C114.979 20.3173 116.435 18.5416 117.794 16.7082C118.472 15.7926 119.115 14.8773 119.608 14.0911C119.855 13.6978 120.056 13.3482 120.204 13.0546C120.359 12.7471 120.427 12.5546 120.447 12.4617C120.562 11.9214 121.093 11.5765 121.633 11.6912ZM130.864 24.1994C131.356 24.4514 131.55 25.0541 131.298 25.5455C131.141 25.8515 130.975 26.1553 130.805 26.4671C130.027 27.8937 129.158 29.4865 128.628 32.2134C128.405 33.3597 128.032 35.0557 126.905 36.5405C126.571 36.9803 125.943 37.0661 125.503 36.732C125.064 36.398 124.978 35.7706 125.312 35.3308C126.138 34.2432 126.447 32.9524 126.665 31.8315C127.259 28.7781 128.282 26.9082 129.071 25.4672C129.232 25.1734 129.383 24.8975 129.518 24.6329C129.77 24.1415 130.373 23.9474 130.864 24.1994ZM100.354 25.0647C100.902 25.1317 101.292 25.6305 101.225 26.1787C101.059 27.5284 101.807 29.0659 103.101 30.3788C103.928 31.2168 104.876 31.8595 105.74 32.241C105.776 32.0162 105.827 31.7872 105.882 31.5601C106.002 31.0683 106.172 30.489 106.361 29.8455C106.372 29.8078 106.384 29.77 106.395 29.7319C106.6 29.0336 106.832 28.2397 107.069 27.3337C107.208 26.7993 107.755 26.4794 108.289 26.6191C108.823 26.7587 109.143 27.3051 109.004 27.8394C108.759 28.777 108.519 29.5959 108.314 30.2958L108.288 30.3844C108.091 31.0522 107.933 31.5892 107.825 32.0338C107.755 32.3199 107.715 32.5322 107.696 32.688C108.646 32.7926 110.072 32.9845 111.467 33.291C112.335 33.4817 113.221 33.7229 113.982 34.0272C114.708 34.3172 115.473 34.7217 115.942 35.3175C116.283 35.7516 116.208 36.3803 115.774 36.7217C115.34 37.0631 114.711 36.988 114.369 36.5539C114.242 36.3912 113.896 36.1465 113.24 35.8845C112.621 35.6368 111.853 35.4233 111.038 35.2444C109.412 34.8873 107.716 34.6927 106.903 34.6175C105.174 34.4574 103.168 33.2945 101.677 31.783C100.188 30.2721 98.9675 28.1584 99.2395 25.9358C99.3066 25.3876 99.8054 24.9976 100.354 25.0647ZM140.802 38.5628C141.091 38.1482 141.026 37.5737 140.635 37.2357C140.218 36.8744 139.586 36.9201 139.225 37.3378C138.991 37.608 138.892 37.9177 138.844 38.1565C138.795 38.3986 138.781 38.6529 138.777 38.8823C138.773 39.0892 138.777 39.3179 138.781 39.5434C138.781 39.5709 138.782 39.5983 138.782 39.6257C138.787 39.8853 138.79 40.155 138.785 40.4418C138.762 41.5733 138.595 42.9602 137.754 44.4792C137.669 44.6318 137.384 44.9551 136.851 45.4447C136.352 45.9032 135.74 46.4166 135.11 46.9441L135.097 46.9544C134.482 47.4698 133.848 48.0004 133.339 48.4712C133.082 48.7085 132.841 48.9442 132.643 49.1664C132.459 49.3721 132.252 49.6319 132.127 49.9141C131.903 50.4189 132.13 51.0097 132.635 51.2337C133.14 51.4576 133.731 51.2299 133.955 50.7251C133.954 50.7277 133.954 50.727 133.957 50.7229C133.967 50.7063 134.014 50.6342 134.136 50.4977C134.273 50.3438 134.461 50.1572 134.695 49.9405C135.166 49.5063 135.763 49.0055 136.394 48.4774L136.406 48.4671C137.022 47.9509 137.668 47.41 138.204 46.9175C138.71 46.4529 139.239 45.926 139.503 45.4482C139.579 45.3118 139.863 44.989 140.415 44.5293C140.931 44.0993 141.589 43.6252 142.288 43.1814C142.988 42.7374 143.709 42.3361 144.35 42.0447C145.023 41.7389 145.501 41.6039 145.751 41.5923C146.302 41.5667 146.729 41.0986 146.703 40.5469C146.677 39.9953 146.209 39.5688 145.658 39.5945C145.006 39.6248 144.237 39.8994 143.523 40.224C142.777 40.5628 141.973 41.0124 141.217 41.4929C141.038 41.6061 140.861 41.7218 140.687 41.8389C140.751 41.3504 140.776 40.8952 140.784 40.4815C140.791 40.1552 140.786 39.8541 140.782 39.5914C140.781 39.5642 140.781 39.5375 140.781 39.5114C140.776 39.2779 140.773 39.0874 140.776 38.9187C140.78 38.7364 140.79 38.6269 140.802 38.5628ZM140.809 38.532C140.81 38.5292 140.81 38.5279 140.81 38.528C140.811 38.528 140.81 38.5294 140.809 38.532ZM144.039 54.9872C144.53 55.2407 144.722 55.844 144.468 56.3347C143.995 57.2499 142.994 58.2579 141.862 59.2043C140.697 60.1781 139.278 61.1803 137.842 62.0745C136.407 62.9682 134.931 63.7686 133.648 64.3307C133.007 64.6114 132.397 64.8406 131.853 64.9906C131.333 65.1339 130.775 65.2334 130.282 65.1706C129.734 65.1008 129.346 64.6001 129.416 64.0523C129.486 63.5044 129.986 63.1168 130.534 63.1866C130.628 63.1985 130.876 63.1852 131.321 63.0624C131.743 62.9464 132.258 62.7563 132.845 62.4989C134.019 61.9848 135.408 61.234 136.785 60.3767C138.161 59.5198 139.501 58.5712 140.579 57.6699C141.69 56.7412 142.416 55.9497 142.691 55.4167C142.945 54.926 143.548 54.7337 144.039 54.9872Z" fill="black"/>
<path fill-rule="evenodd" clip-rule="evenodd" d="M110.668 4.66609C109.081 6.01787 108.052 7.73343 107.603 8.86456C107.457 9.2335 107.106 9.48096 106.71 9.49517C103.608 9.60628 101.053 10.9396 99.098 12.604C97.1336 14.2761 95.8222 16.2439 95.2302 17.5027C95.1189 17.7391 94.9196 17.9226 94.6748 18.014C87.2262 20.7928 86.0053 27.4631 86.3088 30.4013C86.3656 30.9506 85.9663 31.442 85.4169 31.4988C84.8675 31.5555 84.3762 31.1562 84.3194 30.6068C83.9608 27.1358 85.3622 19.5651 93.6015 16.2844C94.3638 14.8061 95.7799 12.802 97.8016 11.081C99.8764 9.31483 102.631 7.81305 106.003 7.53404C106.634 6.20333 107.755 4.52054 109.371 3.14368C111.258 1.53651 113.854 0.321503 117.116 0.635478C123.019 1.20364 126.453 5.4904 127.702 8.04934C129.423 8.22164 131.748 8.77612 133.825 9.96205C136.042 11.2282 138.045 13.2622 138.614 16.3513C140.697 17.1992 143.477 18.8829 145.767 21.4667C148.218 24.2326 150.122 28.0513 149.965 32.9597C152.34 35.5799 155.307 39.7777 156.813 44.2748C158.335 48.8165 158.419 53.8833 154.584 57.8059C154.961 60.2419 154.907 63.6693 153.539 66.6339C152.795 68.2457 151.656 69.7329 149.982 70.8256C148.423 71.8433 146.45 72.4853 144 72.6091C142.473 74.8367 138.363 77.7391 131.391 76.5134C130.695 76.979 129.506 77.4451 127.908 77.4697C127.356 77.4782 126.901 77.0374 126.893 76.4852C126.884 75.9329 127.325 75.4784 127.877 75.4699C129.477 75.4453 130.309 74.8549 130.416 74.7461C130.653 74.5059 130.994 74.4007 131.324 74.4662C138.334 75.8558 141.76 72.6221 142.55 71.1543C142.721 70.8361 143.051 70.6351 143.412 70.6284C145.807 70.5843 147.578 70.0063 148.889 69.1507C150.2 68.2949 151.111 67.1225 151.723 65.796C152.963 63.1086 152.949 59.8425 152.527 57.6478C152.463 57.3112 152.575 56.9649 152.825 56.7303C156.249 53.5142 156.362 49.2247 154.917 44.9101C153.468 40.5845 150.509 36.4698 148.217 34.0131C148.031 33.8139 147.935 33.5474 147.95 33.2754C148.2 28.7788 146.508 25.3184 144.27 22.7931C142.015 20.248 139.22 18.6758 137.377 18.0191C137.018 17.8914 136.763 17.5716 136.719 17.1938C136.411 14.5698 134.819 12.833 132.833 11.6988C130.825 10.552 128.493 10.0773 126.981 9.99935C126.591 9.97927 126.249 9.73462 126.104 9.37263C125.297 7.35757 122.296 3.14326 116.924 2.62628C114.312 2.3749 112.236 3.33042 110.668 4.66609ZM88.4112 67.6445C88.8634 67.3274 89.487 67.4369 89.8041 67.8891C91.4794 70.2781 94.1624 71.599 96.9559 72.2521C99.7458 72.9042 102.523 72.8592 104.197 72.6219C104.455 72.5853 104.717 72.6509 104.928 72.8047C106.367 73.857 107.738 74.4312 108.867 74.7247C109.401 74.8636 109.722 75.4096 109.583 75.9441C109.444 76.4786 108.898 76.7993 108.363 76.6603C107.091 76.3296 105.611 75.7152 104.077 74.6535C102.179 74.8722 99.3537 74.8665 96.5006 74.1995C93.4424 73.4846 90.2292 71.9788 88.1666 69.0374C87.8495 68.5852 87.959 67.9616 88.4112 67.6445Z" fill="black"/>
<path d="M62.205 17.9044C62.205 18.5711 61.6645 19.1116 60.9978 19.1116C60.3311 19.1116 59.7907 18.5711 59.7907 17.9044C59.7907 17.2377 60.3311 16.6973 60.9978 16.6973C61.6645 16.6973 62.205 17.2377 62.205 17.9044Z" fill="#BF5002"/>
<path d="M62.2115 25.7761C62.2115 26.4428 61.6711 26.9833 61.0044 26.9833C60.3377 26.9833 59.7972 26.4428 59.7972 25.7761C59.7972 25.1094 60.3377 24.569 61.0044 24.569C61.6711 24.569 62.2115 25.1094 62.2115 25.7761Z" fill="#BF5002"/>
<path d="M62.2115 50.5673C62.2115 51.234 61.6711 51.7744 61.0044 51.7744C60.3377 51.7744 59.7972 51.234 59.7972 50.5673C59.7972 49.9006 60.3377 49.3601 61.0044 49.3601C61.6711 49.3601 62.2115 49.9006 62.2115 50.5673Z" fill="#BF5002"/>
<path d="M62.2115 83.2295C62.2115 83.8962 61.6711 84.4367 61.0044 84.4367C60.3377 84.4367 59.7972 83.8962 59.7972 83.2295C59.7972 82.5628 60.3377 82.0223 61.0044 82.0223C61.6711 82.0223 62.2115 82.5628 62.2115 83.2295Z" fill="#BF5002"/>
<path d="M62.2115 58.4391C62.2115 59.1058 61.6711 59.6463 61.0044 59.6463C60.3377 59.6463 59.7972 59.1058 59.7972 58.4391C59.7972 57.7724 60.3377 57.2319 61.0044 57.2319C61.6711 57.2319 62.2115 57.7724 62.2115 58.4391Z" fill="#BF5002"/>
<path d="M62.2115 91.1011C62.2115 91.7678 61.6711 92.3082 61.0044 92.3082C60.3377 92.3082 59.7972 91.7678 59.7972 91.1011C59.7972 90.4344 60.3377 89.8939 61.0044 89.8939C61.6711 89.8939 62.2115 90.4344 62.2115 91.1011Z" fill="#BF5002"/>
</svg>
