<svg width="127" height="77" viewBox="0 0 127 77" fill="none" xmlns="http://www.w3.org/2000/svg">
<path d="M9.22788 66.048V68.096H8.02788V70H5.80388V68.096H0.507875V66.048L4.23588 58.8H6.60388L2.89188 66.048H5.80388V63.392H8.02788V66.048H9.22788ZM12.5571 69.808C12.2905 70.0747 11.9705 70.208 11.5971 70.208C11.2238 70.208 10.9038 70.0747 10.6371 69.808C10.3705 69.5413 10.2371 69.2213 10.2371 68.848C10.2371 68.4747 10.3705 68.1547 10.6371 67.888C10.9038 67.6213 11.2238 67.488 11.5971 67.488C11.9705 67.488 12.2905 67.6213 12.5571 67.888C12.8238 68.1547 12.9571 68.4747 12.9571 68.848C12.9571 69.2213 12.8238 69.5413 12.5571 69.808ZM20.7424 64.176C21.777 64.7947 22.2944 65.696 22.2944 66.88C22.2944 67.9147 21.9317 68.7307 21.2064 69.328C20.4917 69.9253 19.5157 70.224 18.2784 70.224C17.0304 70.224 16.049 69.9253 15.3344 69.328C14.6197 68.7307 14.2624 67.9147 14.2624 66.88C14.2624 65.696 14.7744 64.7947 15.7984 64.176C15.0197 63.6107 14.6304 62.8373 14.6304 61.856C14.6304 60.8213 14.977 60.016 15.6704 59.44C16.3744 58.864 17.2437 58.576 18.2784 58.576C19.313 58.576 20.177 58.864 20.8704 59.44C21.5637 60.016 21.9104 60.8213 21.9104 61.856C21.9104 62.848 21.521 63.6213 20.7424 64.176ZM19.3184 61.008C19.0517 60.7733 18.705 60.656 18.2784 60.656C17.8517 60.656 17.505 60.7733 17.2384 61.008C16.9717 61.2427 16.8384 61.5627 16.8384 61.968C16.8384 62.3733 16.9717 62.6987 17.2384 62.944C17.505 63.1787 17.8517 63.296 18.2784 63.296C18.705 63.296 19.0517 63.1787 19.3184 62.944C19.585 62.6987 19.7184 62.3733 19.7184 61.968C19.7184 61.5627 19.585 61.2427 19.3184 61.008ZM16.9504 67.744C17.2917 68.0107 17.7344 68.144 18.2784 68.144C18.8224 68.144 19.2597 68.0107 19.5904 67.744C19.9317 67.4667 20.1024 67.0827 20.1024 66.592C20.1024 66.112 19.9317 65.7387 19.5904 65.472C19.2597 65.1947 18.8224 65.056 18.2784 65.056C17.7344 65.056 17.2917 65.1947 16.9504 65.472C16.6197 65.7387 16.4544 66.112 16.4544 66.592C16.4544 67.0827 16.6197 67.4667 16.9504 67.744Z" fill="black"/>
<path d="M40 55L42.0206 61.2188H48.5595L43.2694 65.0623L45.2901 71.2812L40 67.4377L34.7099 71.2812L36.7306 65.0623L31.4405 61.2188H37.9794L40 55Z" fill="#EA8632"/>
<path d="M59.5 55L61.5206 61.2188H68.0595L62.7694 65.0623L64.7901 71.2812L59.5 67.4377L54.2099 71.2812L56.2306 65.0623L50.9405 61.2188H57.4794L59.5 55Z" fill="#EA8632"/>
<path d="M79 55L81.0206 61.2188H87.5595L82.2694 65.0623L84.2901 71.2812L79 67.4377L73.7099 71.2812L75.7306 65.0623L70.4405 61.2188H76.9794L79 55Z" fill="#EA8632"/>
<path d="M98.5 55L100.521 61.2188H107.06L101.769 65.0623L103.79 71.2812L98.5 67.4377L93.2099 71.2812L95.2306 65.0623L89.9405 61.2188H96.4794L98.5 55Z" fill="#EA8632"/>
<path d="M118 56.2135L119.664 61.3347L119.748 61.5938H120.021H125.405L121.049 64.7589L120.829 64.9191L120.913 65.1782L122.577 70.2994L118.22 67.1343L118 66.9742L117.78 67.1343L113.423 70.2994L115.087 65.1782L115.171 64.9191L114.951 64.7589L110.595 61.5938H115.979H116.252L116.336 61.3347L118 56.2135Z" stroke="#EA8632" stroke-width="0.75"/>
<path d="M112.71 71.2812L118 67.4377V55L115.979 61.2188H109.44L114.731 65.0623L112.71 71.2812Z" fill="#EA8632"/>
<path fill-rule="evenodd" clip-rule="evenodd" d="M98.276 10.9743C98.276 7.82778 96.984 7.21383 94.932 7.21383C93.032 7.21383 92.424 8.13476 92.348 9.97663C92.272 15.272 102.076 12.1255 101.924 21.4883C101.848 25.479 99.188 28.165 94.628 28.165C89.156 28.165 86.876 24.7115 87.332 19.9534H90.98C90.676 23.5603 92.652 24.4813 94.628 24.4813C96.3 24.4813 97.592 23.8673 97.592 21.6418C97.744 16.1929 87.864 19.0324 88.016 9.97663C88.092 5.52546 91.284 3.53012 95.084 3.53012C101.316 3.53012 102 8.2115 101.924 11.051H98.276V10.9743ZM80.72 27.3208V4.22081H85.128V27.4743H80.72V27.3208ZM77.072 15.4255V25.4022H76.768C75.248 26.9371 72.664 28.165 70.46 28.165C66.736 28.165 62.328 26.3999 62.328 19.9534V12.4324C62.328 6.52315 65.672 3.45337 70.308 3.45337C75.324 3.45337 76.616 6.67663 76.996 9.36268V11.665H73.348V10.5906C73.12 7.98127 71.98 7.21383 70.156 7.21383C68.18 7.21383 66.736 8.74872 66.736 12.7394V19.5696C66.812 25.7092 71.98 24.558 73.348 23.0999V19.1859H69.7V15.4255H77.072Z" fill="#414142"/>
<path d="M57.616 16.5C57.616 25.6326 50.548 33 41.808 33C33.068 33 26 25.6326 26 16.5C26 7.36744 33.068 0 41.808 0C50.548 0 57.616 7.36744 57.616 16.5Z" fill="#77BB42"/>
<path d="M55.868 10.9744C55.868 6.83017 53.056 3.60693 48.42 3.60693C42.796 3.60693 39.984 7.98133 40.972 13.6604H44.468C44.164 8.74878 46.064 7.2139 47.964 7.2139C50.396 7.2139 51.46 9.82319 51.46 11.3581C51.46 15.3488 46.824 19.4162 40.06 25.5557V28.3185H55.868V24.6348H46.52C49.94 21.7186 55.868 16.9604 55.868 10.9744Z" fill="white"/>
</svg>
