<svg width="112" height="82" viewBox="0 0 112 82" fill="none" xmlns="http://www.w3.org/2000/svg">
<path d="M9.41538 70.1886V72.2366H8.21538V74.1406H5.99138V72.2366H0.695375V70.1886L4.42338 62.9406H6.79138L3.07938 70.1886H5.99138V67.5326H8.21538V70.1886H9.41538Z" fill="black"/>
<path d="M25 60L27.0206 66.2188H33.5595L28.2694 70.0623L30.2901 76.2812L25 72.4377L19.7099 76.2812L21.7306 70.0623L16.4405 66.2188H22.9794L25 60Z" fill="#EA8632"/>
<path d="M44.5 60L46.5206 66.2188H53.0595L47.7694 70.0623L49.7901 76.2812L44.5 72.4377L39.2099 76.2812L41.2306 70.0623L35.9405 66.2188H42.4794L44.5 60Z" fill="#EA8632"/>
<path d="M64 60L66.0206 66.2188H72.5595L67.2694 70.0623L69.2901 76.2812L64 72.4377L58.7099 76.2812L60.7306 70.0623L55.4405 66.2188H61.9794L64 60Z" fill="#EA8632"/>
<path d="M83.5 60L85.5206 66.2188H92.0595L86.7694 70.0623L88.7901 76.2812L83.5 72.4377L78.2099 76.2812L80.2306 70.0623L74.9405 66.2188H81.4794L83.5 60Z" fill="#EA8632"/>
<path d="M103 61.2135L104.664 66.3347L104.748 66.5938H105.021H110.405L106.049 69.7589L105.829 69.9191L105.913 70.1782L107.577 75.2994L103.22 72.1343L103 71.9742L102.78 72.1343L98.4232 75.2994L100.087 70.1782L100.171 69.9191L99.951 69.7589L95.5946 66.5938H100.979H101.252L101.336 66.3347L103 61.2135Z" stroke="#EA8632" stroke-width="0.75"/>
<path d="M97.7099 76.2812L103 72.4377V60L100.979 66.2188H94.4405L99.7306 70.0623L97.7099 76.2812Z" fill="#EA8632"/>
<path fill-rule="evenodd" clip-rule="evenodd" d="M56.2298 0C52.823 0.00144603 49.4929 0.987324 46.6605 2.83308C43.828 4.67884 41.6201 7.30169 40.3157 10.3703C39.0113 13.4389 38.669 16.8156 39.3319 20.0738C39.9948 23.332 41.6332 26.3255 44.0402 28.6763C47.1617 31.7197 54.5068 36.1216 54.9421 40.7445C54.9421 41.0775 55.0778 41.3968 55.3193 41.6322C55.5608 41.8677 55.8883 42 56.2298 42C56.5714 42 56.8989 41.8677 57.1404 41.6322C57.3819 41.3968 57.5176 41.0775 57.5176 40.7445C57.9528 36.1191 65.2928 31.7272 68.4091 28.6914C70.8208 26.342 72.4637 23.3481 73.13 20.0882C73.7963 16.8284 73.4561 13.4491 72.1523 10.3779C70.8486 7.30653 68.6399 4.68122 65.8057 2.83395C62.9715 0.986685 59.639 0.000455088 56.2298 0Z" fill="#FF4433"/>
<path fill-rule="evenodd" clip-rule="evenodd" d="M56.2297 22.6948C57.4256 22.6943 58.5945 22.348 59.5886 21.6999C60.5827 21.0517 61.3574 20.1308 61.8147 19.0534C62.272 17.976 62.3913 16.7906 62.1577 15.647C61.9241 14.5035 61.348 13.4531 60.5022 12.6288C59.6564 11.8045 58.5789 11.2432 57.4059 11.0159C56.233 10.7887 55.0172 10.9056 53.9124 11.3519C52.8075 11.7982 51.8633 12.5539 51.1989 13.5235C50.5346 14.493 50.1799 15.6328 50.1799 16.7988C50.1797 17.5734 50.3359 18.3404 50.6399 19.0561C50.9437 19.7717 51.3894 20.4219 51.9513 20.9695C52.5132 21.5171 53.1802 21.9513 53.9143 22.2474C54.6484 22.5434 55.4352 22.6954 56.2297 22.6948Z" fill="#BF3326"/>
</svg>
