<svg width="161" height="160" viewBox="0 0 161 160" fill="none" xmlns="http://www.w3.org/2000/svg">
<path fill-rule="evenodd" clip-rule="evenodd" d="M46.3592 49.5808C46.3592 43.5057 51.284 38.5808 57.3592 38.5808H103.871C109.946 38.5808 114.871 43.5057 114.871 49.5808V130.63C114.871 136.705 109.946 141.63 103.871 141.63H57.3592C51.2841 141.63 46.3592 136.705 46.3592 130.63V49.5808ZM57.3592 40.5808C52.3886 40.5808 48.3592 44.6103 48.3592 49.5808V130.63C48.3592 135.601 52.3886 139.63 57.3592 139.63H103.871C108.842 139.63 112.871 135.601 112.871 130.63V49.5808C112.871 44.6102 108.842 40.5808 103.871 40.5808H57.3592Z" fill="black"/>
<path fill-rule="evenodd" clip-rule="evenodd" d="M46.3592 49.5808C46.3592 43.5057 51.2841 38.5808 57.3592 38.5808H103.871C109.946 38.5808 114.871 43.5057 114.871 49.5808V60.9563C114.871 68.6883 108.603 74.9563 100.871 74.9563H60.3592C52.6272 74.9563 46.3592 68.6883 46.3592 60.9563V49.5808ZM57.3592 40.5808C52.3886 40.5808 48.3592 44.6102 48.3592 49.5808V60.9563C48.3592 67.5838 53.7318 72.9563 60.3592 72.9563H100.871C107.499 72.9563 112.871 67.5838 112.871 60.9563V49.5808C112.871 44.6102 108.842 40.5808 103.871 40.5808H57.3592Z" fill="black"/>
<path fill-rule="evenodd" clip-rule="evenodd" d="M46.3592 130.652C46.3592 136.727 51.2841 141.652 57.3592 141.652H103.871C109.946 141.652 114.871 136.727 114.871 130.652V122.476C114.871 114.744 108.603 108.476 100.871 108.476H95.9152C95.3629 108.476 94.9152 108.924 94.9152 109.476C94.9152 110.028 95.3629 110.476 95.9152 110.476H100.871C107.499 110.476 112.871 115.849 112.871 122.476V130.652C112.871 135.622 108.842 139.652 103.871 139.652H57.3592C52.3886 139.652 48.3592 135.622 48.3592 130.652V122.476C48.3592 115.849 53.7318 110.476 60.3592 110.476H88.7437C89.296 110.476 89.7437 110.028 89.7437 109.476C89.7437 108.924 89.296 108.476 88.7437 108.476H60.3592C52.6272 108.476 46.3592 114.744 46.3592 122.476V130.652Z" fill="black"/>
<path fill-rule="evenodd" clip-rule="evenodd" d="M38.8547 27.062C38.8547 22.6437 42.4365 19.062 46.8547 19.062H114.376C118.794 19.062 122.376 22.6437 122.376 27.062V32.5807C122.376 36.999 118.794 40.5807 114.376 40.5807H46.8547C42.4365 40.5807 38.8547 36.999 38.8547 32.5807V27.062ZM46.8547 21.062C43.541 21.062 40.8547 23.7483 40.8547 27.062V32.5807C40.8547 35.8944 43.541 38.5807 46.8547 38.5807H114.376C117.69 38.5807 120.376 35.8944 120.376 32.5807V27.062C120.376 23.7483 117.69 21.062 114.376 21.062H46.8547Z" fill="#BF5002"/>
<path fill-rule="evenodd" clip-rule="evenodd" d="M57.851 35.598C57.851 32.8461 60.0818 30.6152 62.8338 30.6152H67.0834C69.8354 30.6152 72.0663 32.8461 72.0663 35.598C72.0663 38.35 69.8354 40.5809 67.0835 40.5809H62.8338C60.0818 40.5809 57.851 38.35 57.851 35.598ZM62.8338 32.6152C61.1864 32.6152 59.851 33.9507 59.851 35.598C59.851 37.2454 61.1864 38.5809 62.8338 38.5809H67.0835C68.7308 38.5809 70.0663 37.2454 70.0663 35.598C70.0663 33.9507 68.7308 32.6152 67.0834 32.6152H62.8338Z" fill="#BF5002"/>
<path fill-rule="evenodd" clip-rule="evenodd" d="M55.3262 78.0613C55.3262 75.2419 57.6118 72.9563 60.4312 72.9563H68.6061C71.4256 72.9563 73.7111 75.2419 73.7111 78.0613C73.7111 80.8807 71.4256 83.1663 68.6061 83.1663H60.4312C57.6118 83.1663 55.3262 80.8807 55.3262 78.0613ZM60.4312 74.9563C58.7163 74.9563 57.3262 76.3465 57.3262 78.0613C57.3262 79.7762 58.7163 81.1663 60.4312 81.1663H68.6061C70.321 81.1663 71.7111 79.7762 71.7111 78.0613C71.7111 76.3465 70.321 74.9563 68.6061 74.9563H60.4312Z" fill="black"/>
<path fill-rule="evenodd" clip-rule="evenodd" d="M87.0289 78.0613C87.0289 75.2419 89.3145 72.9563 92.1339 72.9563H100.309C103.128 72.9563 105.414 75.2419 105.414 78.0613C105.414 80.8807 103.128 83.1663 100.309 83.1663H92.1339C89.3145 83.1663 87.0289 80.8807 87.0289 78.0613ZM92.1339 74.9563C90.4191 74.9563 89.0289 76.3465 89.0289 78.0613C89.0289 79.7762 90.4191 81.1663 92.1339 81.1663H100.309C102.024 81.1663 103.414 79.7762 103.414 78.0613C103.414 76.3465 102.024 74.9563 100.309 74.9563H92.1339Z" fill="black"/>
<path fill-rule="evenodd" clip-rule="evenodd" d="M61.6339 59.0075L61.6339 73.4067L59.6339 73.4067L59.6339 59.0075C59.6339 56.1881 61.9195 53.9025 64.7389 53.9025C67.5583 53.9025 69.8439 56.1881 69.8439 59.0075L69.8439 73.4067L67.8439 73.4067L67.8439 59.0075C67.8439 57.2927 66.4538 55.9025 64.7389 55.9025C63.0241 55.9025 61.6339 57.2927 61.6339 59.0075Z" fill="black"/>
<path fill-rule="evenodd" clip-rule="evenodd" d="M61.6339 96.8885L61.6339 81.6985L59.6339 81.6985L59.6339 97.2101C59.6339 97.4192 59.6995 97.623 59.8214 97.793L64.0668 103.711C64.2579 103.977 64.5675 104.133 64.8953 104.128C65.2232 104.123 65.5276 103.957 65.7101 103.685L69.6747 97.7666C69.785 97.602 69.8439 97.4083 69.8439 97.2101L69.8439 81.6985L67.8439 81.6985L67.8439 96.9061L64.8512 101.373L61.6339 96.8885Z" fill="black"/>
<path fill-rule="evenodd" clip-rule="evenodd" d="M93.1165 96.8885L93.1165 81.6985L91.1165 81.6985L91.1165 97.2101C91.1165 97.4192 91.182 97.623 91.3039 97.793L95.5493 103.711C95.7404 103.977 96.05 104.133 96.3779 104.128C96.7057 104.123 97.0102 103.957 97.1927 103.685L101.157 97.7666C101.268 97.602 101.326 97.4083 101.326 97.2101L101.326 81.6985L99.3265 81.6985L99.3265 96.9061L96.3337 101.373L93.1165 96.8885Z" fill="black"/>
<path fill-rule="evenodd" clip-rule="evenodd" d="M93.1165 59.0075L93.1165 73.4067L91.1165 73.4067L91.1165 59.0075C91.1165 56.1881 93.402 53.9025 96.2215 53.9025C99.0409 53.9025 101.326 56.1881 101.326 59.0075L101.326 73.4067L99.3265 73.4067L99.3265 59.0075C99.3265 57.2927 97.9363 55.9025 96.2215 55.9025C94.5066 55.9025 93.1165 57.2927 93.1165 59.0075Z" fill="black"/>
<path opacity="0.1" fill-rule="evenodd" clip-rule="evenodd" d="M46.3828 49.6024C46.3828 44.0796 50.86 39.6024 56.3828 39.6024H102.895C108.418 39.6024 112.895 44.0796 112.895 49.6024V130.652C112.895 136.174 108.418 140.652 102.895 140.652H56.3828C50.86 140.652 46.3828 136.174 46.3828 130.652V49.6024ZM88.0588 78.0612C88.0588 79.9865 89.3842 81.6021 91.1722 82.0457C91.7087 82.1788 92.1633 82.6147 92.1627 83.1674L92.1467 96.8878C92.1464 97.0973 92.212 97.3016 92.3341 97.4718L95.5511 101.956C95.9579 102.523 96.8059 102.51 97.1944 101.93L100.187 97.4631C100.297 97.2981 100.356 97.104 100.356 96.9054L100.34 83.1674C100.339 82.6147 100.794 82.1788 101.33 82.0457C103.118 81.6021 104.444 79.9865 104.444 78.0612C104.444 76.136 103.118 74.5203 101.33 74.0768C100.794 73.9437 100.339 73.5078 100.34 72.9551L100.356 59.0075C100.356 56.7404 98.5185 54.9025 96.2513 54.9025C93.9842 54.9025 92.1463 56.7404 92.1463 59.0075L92.1627 72.9551C92.1633 73.5078 91.7087 73.9437 91.1722 74.0768C89.3842 74.5203 88.0588 76.136 88.0588 78.0612ZM59.6599 82.0457C57.8718 81.6021 56.5465 79.9865 56.5465 78.0612C56.5465 76.136 57.8718 74.5203 59.6599 74.0768C60.1964 73.9437 60.651 73.5078 60.6503 72.9551L60.634 59.0075C60.634 56.7404 62.4718 54.9025 64.739 54.9025C67.0061 54.9025 68.844 56.7404 68.844 59.0075L68.8276 72.9551C68.827 73.5078 69.2816 73.9437 69.818 74.0768C71.6061 74.5203 72.9314 76.136 72.9314 78.0612C72.9314 79.9865 71.6061 81.6021 69.818 82.0457C69.2815 82.1788 68.827 82.6147 68.8276 83.1674L68.8436 96.9054C68.8439 97.104 68.785 97.2981 68.6744 97.4631L65.682 101.93C65.2936 102.51 64.4456 102.523 64.0387 101.956L60.8218 97.4718C60.6997 97.3016 60.6341 97.0973 60.6343 96.8878L60.6503 83.1674C60.651 82.6147 60.1964 82.1788 59.6599 82.0457Z" fill="#BF5002"/>
<path fill-rule="evenodd" clip-rule="evenodd" d="M89.1437 35.5977C89.1437 32.8457 91.3746 30.6149 94.1265 30.6149H98.3762C101.128 30.6149 103.359 32.8457 103.359 35.5977C103.359 38.3496 101.128 40.5805 98.3762 40.5805H94.1265C91.3746 40.5805 89.1437 38.3496 89.1437 35.5977ZM94.1265 32.6149C92.4791 32.6149 91.1437 33.9503 91.1437 35.5977C91.1437 37.245 92.4791 38.5805 94.1265 38.5805H98.3762C100.024 38.5805 101.359 37.245 101.359 35.5977C101.359 33.9503 100.024 32.6149 98.3762 32.6149H94.1265Z" fill="#BF5002"/>
<path fill-rule="evenodd" clip-rule="evenodd" d="M42.6963 129.599C38.278 129.599 34.6963 126.017 34.6963 121.599L34.6963 97.1053C34.6963 92.6871 38.278 89.1053 42.6963 89.1053L48.3592 89.1053L48.3592 129.599L42.6963 129.599ZM36.6963 121.599C36.6963 124.913 39.3826 127.599 42.6963 127.599L46.3592 127.599L46.3592 91.1053L42.6963 91.1053C39.3826 91.1053 36.6963 93.7916 36.6963 97.1053L36.6963 121.599Z" fill="black"/>
<path fill-rule="evenodd" clip-rule="evenodd" d="M118.534 129.599C122.953 129.599 126.534 126.017 126.534 121.599L126.534 97.1053C126.534 92.6871 122.953 89.1053 118.534 89.1053L112.871 89.1053L112.871 129.599L118.534 129.599ZM124.534 121.599C124.534 124.913 121.848 127.599 118.534 127.599L114.871 127.599L114.871 91.1053L118.534 91.1053C121.848 91.1053 124.534 93.7916 124.534 97.1053L124.534 121.599Z" fill="black"/>
<path fill-rule="evenodd" clip-rule="evenodd" d="M114.871 94.4857L114.871 82.2389L112.871 82.2389L112.871 94.4857C112.871 98.904 116.453 102.486 120.871 102.486L125.534 102.486L125.534 100.486L120.871 100.486C117.558 100.486 114.871 97.7994 114.871 94.4857Z" fill="black"/>
<path fill-rule="evenodd" clip-rule="evenodd" d="M46.3592 94.4131L46.3592 82.1663L48.3592 82.1663L48.3592 94.4131C48.3592 98.8314 44.7775 102.413 40.3592 102.413L35.6963 102.413L35.6963 100.413L40.3592 100.413C43.6729 100.413 46.3592 97.7268 46.3592 94.4131Z" fill="black"/>
<path opacity="0.1" fill-rule="evenodd" clip-rule="evenodd" d="M35.4657 121.599C35.4657 125.465 38.5997 128.599 42.4657 128.599H47.1286L47.1286 96.1594C46.3329 99.1957 43.5703 101.436 40.2844 101.436H35.6963V97.2027C35.6963 93.2955 38.8637 90.128 42.771 90.128L47.1286 90.1271V90.1052L42.4657 90.1052C38.5997 90.1052 35.4657 93.2392 35.4657 97.1052V121.599Z" fill="#BF5002"/>
<path opacity="0.1" fill-rule="evenodd" clip-rule="evenodd" d="M125.534 121.599C125.534 125.465 122.4 128.599 118.534 128.599H113.871L113.871 96.1596C114.667 99.196 117.43 101.436 120.716 101.436H125.304V97.203C125.304 93.2957 122.136 90.1283 118.229 90.1283L113.871 90.1273V90.1055L118.534 90.1055C122.4 90.1055 125.534 93.2395 125.534 97.1055L125.534 121.599Z" fill="#BF5002"/>
<path fill-rule="evenodd" clip-rule="evenodd" d="M54.4618 120.995C54.4618 120.443 54.9095 119.995 55.4618 119.995H105.769C106.321 119.995 106.769 120.443 106.769 120.995C106.769 121.547 106.321 121.995 105.769 121.995H55.4618C54.9095 121.995 54.4618 121.547 54.4618 120.995Z" fill="#BF5002"/>
<path fill-rule="evenodd" clip-rule="evenodd" d="M61.0421 32.5896C60.4898 32.5896 60.0421 32.1419 60.0421 31.5896L60.0421 20.3487C60.0421 19.7964 60.4898 19.3487 61.0421 19.3487C61.5944 19.3487 62.0421 19.7964 62.0421 20.3487L62.0421 31.5896C62.0421 32.1419 61.5944 32.5896 61.0421 32.5896Z" fill="#BF5002"/>
<path fill-rule="evenodd" clip-rule="evenodd" d="M92.282 32.5896C91.7298 32.5896 91.282 32.1419 91.282 31.5896L91.282 20.3487C91.282 19.7964 91.7298 19.3487 92.282 19.3487C92.8343 19.3487 93.282 19.7964 93.282 20.3487L93.282 31.5896C93.282 32.1419 92.8343 32.5896 92.282 32.5896Z" fill="#BF5002"/>
<path fill-rule="evenodd" clip-rule="evenodd" d="M68.8724 32.5896C68.3201 32.5896 67.8724 32.1419 67.8724 31.5896L67.8724 20.3487C67.8724 19.7964 68.3201 19.3487 68.8724 19.3487C69.4247 19.3487 69.8724 19.7964 69.8724 20.3487L69.8724 31.5896C69.8724 32.1419 69.4247 32.5896 68.8724 32.5896Z" fill="#BF5002"/>
<path fill-rule="evenodd" clip-rule="evenodd" d="M100.112 32.5896C99.56 32.5896 99.1123 32.1419 99.1123 31.5896L99.1123 20.3487C99.1123 19.7964 99.56 19.3487 100.112 19.3487C100.665 19.3487 101.112 19.7964 101.112 20.3487L101.112 31.5896C101.112 32.1419 100.665 32.5896 100.112 32.5896Z" fill="#BF5002"/>
<path fill-rule="evenodd" clip-rule="evenodd" d="M59.1674 126.594C58.6151 126.594 58.1674 126.146 58.1674 125.594L58.1674 121.155C58.1674 120.602 58.6151 120.155 59.1674 120.155C59.7197 120.155 60.1674 120.602 60.1674 121.155L60.1674 125.594C60.1674 126.146 59.7197 126.594 59.1674 126.594Z" fill="#BF5002"/>
</svg>
