<svg width="156" height="148" viewBox="0 0 156 148" fill="none" xmlns="http://www.w3.org/2000/svg">
<path fill-rule="evenodd" clip-rule="evenodd" d="M139.984 15.3848C140.2 15.3195 140.432 15.3294 140.642 15.4128L145.08 17.1763C145.345 17.2816 145.552 17.495 145.65 17.7629C145.748 18.0308 145.726 18.3277 145.592 18.5789C141.046 27.0386 126.49 46.9472 104.371 59.3788C103.89 59.6493 103.28 59.4784 103.009 58.997C102.739 58.5155 102.91 57.9058 103.391 57.6353C124.28 45.8949 138.322 27.3184 143.285 18.6151L140.228 17.4005C122.372 22.8261 93.9709 34.4535 81.9205 39.6264C81.413 39.8443 80.825 39.6095 80.6071 39.102C80.3893 38.5945 80.6241 38.0065 81.1316 37.7886C93.2592 32.5826 122.031 20.8014 139.984 15.3848ZM74.075 43.2358C74.3503 43.7146 74.1854 44.3259 73.7067 44.6012C58.648 53.2615 35.1708 73.911 23.9141 84.4502L31.7774 85.6895C44.8187 81.4794 74.6922 71.1438 91.8874 62.8254C92.3846 62.5849 92.9826 62.7929 93.2231 63.2901C93.4636 63.7873 93.2555 64.3853 92.7584 64.6258C75.3256 73.0591 45.0854 83.5029 32.164 87.6662C32.0148 87.7143 31.8564 87.7266 31.7016 87.7022L21.5882 86.1083C21.2119 86.0489 20.9019 85.7809 20.7889 85.4171C20.6759 85.0532 20.7795 84.6568 21.056 84.3947C31.5906 74.409 56.7205 52.0629 72.7096 42.8675C73.1883 42.5922 73.7997 42.7571 74.075 43.2358Z" fill="black"/>
<path fill-rule="evenodd" clip-rule="evenodd" d="M149.732 9.99538C149.134 10.1559 148.506 10.4814 148.122 10.7322C148.086 10.7562 148.047 10.7778 148.008 10.7968C144.514 12.4705 142.336 13.3721 141.656 13.6225C141.599 13.6434 141.541 13.659 141.482 13.6693C115.675 18.1571 88.9982 29.6098 78.9063 34.7672C78.4145 35.0185 77.8121 34.8236 77.5608 34.3318C77.3095 33.84 77.5044 33.2376 77.9962 32.9863C88.183 27.7804 115.006 16.2597 141.047 11.7149C141.734 11.4543 143.794 10.5963 147.087 9.02031C147.595 8.69569 148.387 8.28536 149.214 8.06368C149.998 7.85335 151.221 7.70819 152.09 8.55188C152.923 9.35995 152.894 10.443 152.716 11.1992C152.564 11.8403 152.269 12.4378 151.998 12.8694C151.874 14.1837 151.215 16.8093 149.389 19.6058L149.427 22.1205C149.427 22.1325 149.427 22.1445 149.427 22.1565C149.201 33.0441 143.936 43.3994 137.554 51.8678C131.163 60.347 123.57 67.042 118.502 70.6294C118.051 70.9485 117.427 70.8418 117.108 70.391C116.789 69.9403 116.896 69.3162 117.347 68.997C122.263 65.5163 129.702 58.9619 135.956 50.664C142.059 42.5678 146.957 32.9137 147.402 22.9038C144.151 28.094 139.135 35.0129 132.869 41.7792C125.256 49.9993 115.74 58.06 105.243 62.4849C104.734 62.6995 104.148 62.4608 103.933 61.9519C103.719 61.443 103.958 60.8565 104.466 60.642C114.594 56.3724 123.884 48.5376 131.401 40.4203C138.912 32.3099 144.593 23.9834 147.514 18.8184C147.527 18.795 147.541 18.7721 147.556 18.7499C149.476 15.9153 149.989 13.3173 150.019 12.4998C150.026 12.3049 150.09 12.1163 150.203 11.9574C150.406 11.6722 150.661 11.1961 150.769 10.7393C150.881 10.2647 150.786 10.0727 150.698 9.98745C150.647 9.93778 150.405 9.81492 149.732 9.99538ZM70.4853 39.1625C70.7652 39.6386 70.6062 40.2514 70.13 40.5313C52.4078 50.9497 35.6465 66.0659 29.4972 72.3078C29.4867 72.3185 29.476 72.3289 29.4651 72.339C28.4195 73.3093 25.2177 76.4553 20.9103 81.1597C16.5556 85.9157 9.71618 92.2657 6.84621 94.8424C6.81407 94.8712 6.7801 94.898 6.7445 94.9224C6.27584 95.2445 5.9536 95.5061 5.73983 95.7104C5.88882 95.7324 6.06508 95.7493 6.26777 95.7593C6.99595 95.7951 7.88495 95.7332 8.6548 95.6331C18.7242 94.1582 35.0899 88.8717 51.5336 82.8198C67.952 76.7772 84.3509 70.0086 94.4324 65.6217C94.9388 65.4013 95.528 65.6332 95.7484 66.1396C95.9687 66.6461 95.7368 67.2352 95.2304 67.4556C85.1201 71.855 68.685 78.6386 52.2244 84.6967C35.7933 90.744 19.2393 96.1057 8.93651 97.6132L8.92109 97.6153C8.29863 97.6965 7.5766 97.7593 6.88138 97.7684C6.81943 97.9458 6.75278 98.1493 6.68489 98.3655C6.50852 98.9272 6.33421 99.5412 6.22816 99.9332C6.22617 99.9406 6.2241 99.9479 6.22194 99.9552C6.22054 99.96 6.21911 99.9647 6.21764 99.9694C5.19023 103.269 3.99572 108.558 3.75471 113.659C3.63423 116.209 3.75407 118.673 4.23174 120.802C4.71069 122.936 5.5316 124.656 6.75167 125.813C12.1816 130.962 17.8554 131.353 19.8299 130.985C19.8758 130.977 19.9223 130.971 19.9689 130.969C20.4764 130.947 21.4755 130.721 23.026 130.097C24.5523 129.482 26.5471 128.507 29.023 127.053C33.9738 124.145 40.8119 119.338 49.6253 111.711C51.2481 110.291 54.4136 108.409 58.4652 106.157C60.5182 105.015 62.8517 103.751 65.3745 102.384C67.8363 101.05 70.4784 99.6187 73.2161 98.1086L102.997 79.9673C103.468 79.68 104.084 79.8295 104.371 80.3011C104.658 80.7728 104.509 81.3881 104.037 81.6754L74.2382 99.8278C74.2259 99.8353 74.2135 99.8425 74.201 99.8494C71.4115 101.388 68.7686 102.82 66.3133 104.15C63.812 105.505 61.5054 106.755 59.4369 107.905C55.3308 110.187 52.37 111.966 50.9401 113.218L50.9358 113.222C42.0535 120.909 35.116 125.793 30.036 128.777C27.4964 130.269 25.4119 131.292 23.7733 131.952C22.2038 132.584 20.9773 132.911 20.1288 132.964C17.4813 133.427 11.2179 132.804 5.37555 127.264C3.76502 125.737 2.80906 123.596 2.28027 121.24C1.7502 118.878 1.63144 116.221 1.75694 113.565C2.00742 108.263 3.23924 102.813 4.30246 99.3928C4.41392 98.9817 4.59313 98.3511 4.77676 97.7663C4.79848 97.6972 4.82041 97.6282 4.84242 97.5599C4.80979 97.5503 4.77751 97.5403 4.74564 97.5299C4.36402 97.4051 3.74556 97.1216 3.51565 96.4499C3.27367 95.7429 3.62397 95.1088 3.95716 94.6959C4.30747 94.2617 4.84567 93.8049 5.5575 93.3116C8.44381 90.718 15.1726 84.4645 19.4352 79.8091C23.747 75.0999 26.9769 71.9213 28.0881 70.8883C34.3256 64.5601 51.2103 49.3336 69.1165 38.8072C69.5926 38.5273 70.2054 38.6864 70.4853 39.1625ZM5.41675 96.0948C5.41631 96.0949 5.41785 96.0905 5.42268 96.0814C5.4196 96.0901 5.41719 96.0947 5.41675 96.0948Z" fill="black"/>
<path fill-rule="evenodd" clip-rule="evenodd" d="M75.7501 71.5572C75.5811 72.0829 75.0178 72.3721 74.492 72.203L52.8362 65.2389C52.3104 65.0698 52.0213 64.5065 52.1903 63.9807C52.3594 63.455 52.9227 63.1658 53.4485 63.3349L75.1043 70.299C75.6301 70.4681 75.9192 71.0314 75.7501 71.5572Z" fill="black"/>
<path opacity="0.1" fill-rule="evenodd" clip-rule="evenodd" d="M4.83137 95.1957L19.6568 80.5602L31.1075 69.3849L44.1468 57.7205L57.1189 47.7617L69.5485 39.8253C72.2084 38.132 78.0202 34.4901 79.9879 33.4685C81.9557 32.4469 99.0925 25.157 107.415 21.6397L121.028 17.4564L136.304 13.437L142.155 12.2119L147.131 10.4736C149.107 9.35673 152.696 8.11304 151.241 12.0736C150.925 12.9357 150.646 13.7111 150.393 14.414C149.196 17.7473 148.584 19.4493 147.292 21.0328C149.389 27.8804 146.437 47.2511 117.851 69.953L114.577 72.566L106.448 78.4503L102.575 81.3511C88.6694 89.8317 59.9077 107.09 56.1077 108.279C53.916 109.653 49.2363 112.892 48.0512 114.854C46.8661 116.816 33.0266 125.511 26.2549 129.613C23.6954 131.069 17.1664 133.153 11.5271 129.837C5.88793 126.521 4.31038 124.783 4.22651 124.329L2.93635 116.997L3.55136 104.865L5.69641 99.2348L5.66118 96.9204C4.96959 96.7551 3.83539 96.1789 4.83137 95.1957ZM73.2896 43.5063C57.7164 54.6524 25.7804 78.5235 22.6222 84.8385L31.8152 86.71L74.3469 71.2423L53.2789 64.1528C54.3986 62.8339 57.0917 59.9884 58.907 59.1583L84.1779 67.272L92.101 63.7244C93.8469 62.9547 98.8211 60.6796 104.75 57.736C110.68 54.7924 113.919 52.2836 114.797 51.3971L86.5297 42.4243C87.9948 41.375 91.6534 38.9735 94.5668 37.7616L121.579 46.0423C124.393 43.5227 130.392 37.8286 131.874 35.2086L115.791 30.3779C117.429 29.2584 121.424 26.7694 124.304 25.7702L137.013 29.5325L144.744 18.114L140.336 16.2488C120.735 22.9335 79.8845 37.7435 73.2896 43.5063Z" fill="#BF5002"/>
<path fill-rule="evenodd" clip-rule="evenodd" d="M84.7563 67.4549C84.5916 67.9821 84.0307 68.2759 83.5036 68.1112L58.4391 60.2788C57.912 60.1141 57.6182 59.5532 57.7829 59.0261C57.9476 58.4989 58.5085 58.2051 59.0356 58.3698L84.1001 66.2022C84.6272 66.3669 84.921 66.9278 84.7563 67.4549Z" fill="black"/>
<path fill-rule="evenodd" clip-rule="evenodd" d="M115.494 51.5305C115.332 52.0583 114.772 52.3544 114.244 52.1918L86.3623 43.6038C85.8345 43.4413 85.5384 42.8816 85.7009 42.3538C85.8635 41.826 86.4232 41.5299 86.951 41.6924L114.833 50.2805C115.361 50.443 115.657 51.0027 115.494 51.5305Z" fill="black"/>
<path fill-rule="evenodd" clip-rule="evenodd" d="M117.177 81.4574C116.784 81.8448 116.151 81.8399 115.763 81.4463L66.9619 31.8741C66.5744 31.4805 66.5794 30.8474 66.9729 30.4599C67.3665 30.0725 67.9997 30.0774 68.3871 30.471L117.188 80.0432C117.576 80.4368 117.571 81.0699 117.177 81.4574Z" fill="black"/>
<path fill-rule="evenodd" clip-rule="evenodd" d="M121.702 46.1253C121.544 46.6548 120.988 46.9566 120.458 46.7994L94.2803 39.0285C93.7509 38.8714 93.4491 38.3147 93.6062 37.7853C93.7634 37.2558 94.32 36.954 94.8495 37.1112L121.027 44.8821C121.557 45.0393 121.859 45.5959 121.702 46.1253Z" fill="black"/>
<path fill-rule="evenodd" clip-rule="evenodd" d="M133.021 35.5076C132.866 36.0378 132.31 36.342 131.78 36.1872L115.368 31.394C114.838 31.2392 114.534 30.6839 114.689 30.1537C114.844 29.6236 115.399 29.3194 115.929 29.4742L132.341 34.2674C132.871 34.4222 133.175 34.9775 133.021 35.5076Z" fill="black"/>
<path fill-rule="evenodd" clip-rule="evenodd" d="M137.827 29.8036C137.676 30.3348 137.123 30.6431 136.592 30.4921L123.665 26.8177C123.134 26.6667 122.826 26.1137 122.977 25.5824C123.128 25.0512 123.681 24.7429 124.212 24.8939L137.139 28.5683C137.67 28.7193 137.978 29.2724 137.827 29.8036Z" fill="black"/>
<path fill-rule="evenodd" clip-rule="evenodd" d="M70.8315 27.5837C71.1561 28.0305 71.057 28.6558 70.6102 28.9804L64.8503 33.1648C64.4035 33.4894 63.7782 33.3903 63.4535 32.9435C63.1289 32.4967 63.228 31.8713 63.6748 31.5467L69.4347 27.3624C69.8815 27.0378 70.5069 27.1368 70.8315 27.5837Z" fill="black"/>
<path fill-rule="evenodd" clip-rule="evenodd" d="M140.153 97.4096C139.91 97.1243 139.604 96.8327 139.274 96.5431L139.267 96.537L125.856 84.319L125.836 84.2989C122.207 80.5966 119.08 81.1031 117.951 81.9135C116.963 82.6214 116.308 83.5107 116.199 84.5328C116.092 85.5439 116.491 86.9642 118.224 88.8072L129.068 100.347C129.277 100.539 129.498 100.766 129.689 100.962C129.784 101.06 129.871 101.15 129.947 101.224C130.219 101.494 130.446 101.688 130.679 101.819C131.053 102.029 131.618 102.184 132.797 101.688L132.81 101.682L139.972 98.7789C140.435 98.5602 140.571 98.3808 140.605 98.3185C140.621 98.2902 140.644 98.2473 140.597 98.1066C140.541 97.937 140.403 97.7028 140.153 97.4096ZM142.36 99.2787C142.042 99.8596 141.48 100.283 140.794 100.602L140.771 100.613L133.567 103.533C131.963 104.208 130.732 104.142 129.699 103.562C129.229 103.298 128.849 102.953 128.539 102.645C128.404 102.511 128.29 102.394 128.185 102.285C128.018 102.112 127.871 101.961 127.693 101.8L127.664 101.773L116.767 90.1772C116.767 90.1771 116.767 90.1773 116.767 90.1772C114.807 88.0924 114.02 86.1219 114.211 84.3218C114.4 82.5326 115.527 81.1901 116.785 80.2882C118.945 78.7391 123.151 78.7172 127.244 82.8783L140.601 95.0462C140.96 95.3619 141.344 95.7239 141.675 96.1123C142.001 96.4953 142.323 96.958 142.496 97.4771C142.677 98.0251 142.697 98.6629 142.36 99.2787Z" fill="#BF5002"/>
<path fill-rule="evenodd" clip-rule="evenodd" d="M12.0356 104.339C12.5723 104.469 12.902 105.01 12.7718 105.547C12.2675 107.627 11.9658 110.074 12.1138 112.417C12.2625 114.771 12.8583 116.933 14.0651 118.535C15.2435 120.1 17.0725 121.224 19.9176 121.416C22.8056 121.612 26.7531 120.845 32.0658 118.528C32.572 118.308 33.1614 118.539 33.3821 119.045C33.6028 119.552 33.3714 120.141 32.8651 120.362C27.4017 122.744 23.1166 123.638 19.7825 123.412C16.4056 123.183 14.023 121.804 12.4676 119.739C10.9406 117.711 10.2804 115.117 10.1178 112.543C9.95466 109.96 10.2867 107.309 10.8281 105.075C10.9583 104.539 11.4989 104.209 12.0356 104.339Z" fill="#BF5002"/>
<path fill-rule="evenodd" clip-rule="evenodd" d="M39.4144 45.8952C39.7282 46.3497 39.6143 46.9725 39.1599 47.2864C33.4214 51.25 26.8693 57.1202 22.6618 66.6909C22.4395 67.1965 21.8495 67.4262 21.3439 67.2039C20.8383 66.9817 20.6086 66.3916 20.8309 65.886C25.2376 55.8624 32.1017 49.7308 38.0232 45.6408C38.4777 45.3269 39.1005 45.4408 39.4144 45.8952Z" fill="black"/>
<path fill-rule="evenodd" clip-rule="evenodd" d="M30.7281 137.136C34.8608 135.337 39.3181 132.44 43.483 129.159C43.9169 128.818 44.5456 128.892 44.8873 129.326C45.2291 129.76 45.1544 130.389 44.7205 130.731C40.4779 134.072 35.8709 137.078 31.5264 138.97C27.2256 140.842 22.973 141.713 19.5684 140.461C19.0501 140.27 18.7845 139.695 18.9752 139.177C19.1659 138.659 19.7407 138.393 20.259 138.584C22.914 139.561 26.5517 138.954 30.7281 137.136Z" fill="black"/>
<path fill-rule="evenodd" clip-rule="evenodd" d="M42.2321 31.0212C42.4888 31.5102 42.3004 32.1147 41.8114 32.3714C36.9274 34.935 31.1686 40.1362 25.3971 51.7557C25.1514 52.2503 24.5512 52.4522 24.0566 52.2065C23.562 51.9608 23.3602 51.3606 23.6059 50.866C29.5112 38.9771 35.531 33.4091 40.8819 30.6005C41.3709 30.3438 41.9754 30.5322 42.2321 31.0212Z" fill="black"/>
<path fill-rule="evenodd" clip-rule="evenodd" d="M129.968 7.70299C130.228 8.19019 130.044 8.796 129.557 9.05609C128.544 9.59701 127.535 9.85605 126.466 10.0329C125.935 10.1207 125.378 10.1899 124.799 10.2605C124.758 10.2655 124.717 10.2705 124.676 10.2755C124.129 10.3422 123.554 10.4121 122.931 10.5032C120.281 10.8903 116.7 11.6644 111.289 14.1607C110.787 14.392 110.193 14.173 109.962 13.6715C109.731 13.17 109.95 12.5759 110.451 12.3446C116.05 9.76212 119.817 8.93687 122.642 8.52421C123.29 8.42956 123.886 8.35692 124.431 8.29058C124.473 8.28542 124.515 8.28031 124.557 8.27522C125.141 8.20403 125.657 8.13951 126.139 8.05975C127.095 7.90171 127.868 7.69078 128.615 7.29176C129.102 7.03167 129.708 7.21578 129.968 7.70299Z" fill="black"/>
<path fill-rule="evenodd" clip-rule="evenodd" d="M117.07 101.496C117.54 101.208 118.156 101.355 118.445 101.826C119.369 103.333 121.526 105.484 124.543 107.037C127.537 108.58 131.308 109.496 135.47 108.655C136.012 108.546 136.539 108.896 136.648 109.438C136.758 109.979 136.407 110.506 135.866 110.616C131.173 111.564 126.939 110.521 123.627 108.816C120.336 107.121 117.883 104.735 116.74 102.872C116.451 102.401 116.599 101.785 117.07 101.496Z" fill="black"/>
<path fill-rule="evenodd" clip-rule="evenodd" d="M141.611 86.1044C141.336 86.5835 141.502 87.1946 141.981 87.4695C143.514 88.3493 145.728 90.4425 147.369 93.4118C148.998 96.3598 150.025 100.102 149.307 104.287C149.213 104.832 149.579 105.349 150.123 105.442C150.668 105.535 151.185 105.17 151.278 104.625C152.088 99.9061 150.922 95.7054 149.12 92.4444C147.329 89.2045 144.872 86.8227 142.976 85.7348C142.497 85.4599 141.886 85.6254 141.611 86.1044Z" fill="black"/>
</svg>
