<svg width="123" height="76" viewBox="0 0 123 76" fill="none" xmlns="http://www.w3.org/2000/svg">
<path d="M14.4154 64.1886V66.2366H13.2154V68.1406H10.9914V66.2366H5.69538V64.1886L9.42338 56.9406H11.7914L8.07938 64.1886H10.9914V61.5326H13.2154V64.1886H14.4154Z" fill="black"/>
<path d="M30 54L32.0206 60.2188H38.5595L33.2694 64.0623L35.2901 70.2812L30 66.4377L24.7099 70.2812L26.7306 64.0623L21.4405 60.2188H27.9794L30 54Z" fill="#EA8632"/>
<path d="M49.5 54L51.5206 60.2188H58.0595L52.7694 64.0623L54.7901 70.2812L49.5 66.4377L44.2099 70.2812L46.2306 64.0623L40.9405 60.2188H47.4794L49.5 54Z" fill="#EA8632"/>
<path d="M69 54L71.0206 60.2188H77.5595L72.2694 64.0623L74.2901 70.2812L69 66.4377L63.7099 70.2812L65.7306 64.0623L60.4405 60.2188H66.9794L69 54Z" fill="#EA8632"/>
<path d="M88.5 54L90.5206 60.2188H97.0595L91.7694 64.0623L93.7901 70.2812L88.5 66.4377L83.2099 70.2812L85.2306 64.0623L79.9405 60.2188H86.4794L88.5 54Z" fill="#EA8632"/>
<path d="M108 55.2135L109.664 60.3347L109.748 60.5938H110.021H115.405L111.049 63.7589L110.829 63.9191L110.913 64.1782L112.577 69.2994L108.22 66.1343L108 65.9742L107.78 66.1343L103.423 69.2994L105.087 64.1782L105.171 63.9191L104.951 63.7589L100.595 60.5938H105.979H106.252L106.336 60.3347L108 55.2135Z" stroke="#EA8632" stroke-width="0.75"/>
<path d="M102.71 70.2812L108 66.4377V54L105.979 60.2188H99.4405L104.731 64.0623L102.71 70.2812Z" fill="#EA8632"/>
<path d="M0 15C0 23.3 6.7 30 15 30C23.3 30 30 23.3 30 15C30 6.7 23.3 0 15 0C6.7 0 0 6.7 0 15ZM5.2 15C5.2 9.8 9.2 5.6 14.3 5.2V10.4C12.1 10.7 10.4 12.6 10.4 14.9C10.4 17.4 12.4 19.5 15 19.5C17.6 19.5 19.6 17.5 19.6 14.9C19.6 12.6 17.9 10.7 15.7 10.4V5.2C20.8 5.5 24.8 9.8 24.8 15C24.8 20.4 20.4 24.8 15 24.8C9.6 24.8 5.2 20.4 5.2 15ZM13 2.6C13 1.5 13.9 0.6 15 0.6C16.1 0.6 17 1.5 17 2.6C17 3.7 16.1 4.6 15 4.6C13.9 4.6 13 3.7 13 2.6Z" fill="#B74746"/>
<path d="M40 18.3001H35.7C35 18.3001 34.6 17.9001 34.6 17.2001V12.9001C34.6 12.1001 35 11.8001 35.7 11.8001H40C40.7 11.8001 41.1 12.2001 41.1 12.9001V17.2001C41.1 17.9001 40.7 18.3001 40 18.3001ZM43.7 12.7001C43.7 10.3001 42.5 9.1001 40.2 9.1001H35.5C33.1 9.1001 32 10.3001 32 12.7001V17.2001C32 19.6001 33.2 20.8001 35.5 20.8001H40.2C42.5 20.8001 43.7 19.6001 43.7 17.2001V12.7001Z" fill="#B74746"/>
<path d="M56.7 9.1001H45V11.7001H49.6V20.9001H52.2V11.7001H56.7V9.1001Z" fill="#B74746"/>
<path d="M69.8 12.7C69.8 10.4 68.7 9.19995 66.5 9.19995H58V11.8H66C66.8 11.8 67.2 12.1 67.2 12.8C67.2 13.5 66.8 13.8 66 13.8H62.6V16.4H66C66.8 16.4 67.2 16.7 67.2 17.4C67.2 18.1 66.8 18.4 66 18.4H58V21H66C68.5 21 69.8 20 69.8 17.9C69.8 16.9 69.6 15.9 69.1 15.2C69.6 14.2 69.8 13.4 69.8 12.7Z" fill="#B74746"/>
<path d="M79.1 18.3001H74.8C74.1 18.3001 73.7 17.9001 73.7 17.2001V12.9001C73.7 12.1001 74.1 11.8001 74.8 11.8001H79.1C79.8 11.8001 80.2 12.2001 80.2 12.9001V17.2001C80.2 17.9001 79.8 18.3001 79.1 18.3001ZM82.8 12.7001C82.8 10.3001 81.6 9.1001 79.3 9.1001H74.6C72.2 9.1001 71.1 10.3001 71.1 12.7001V17.2001C71.1 19.6001 72.3 20.8001 74.6 20.8001H79.3C81.6 20.8001 82.8 19.6001 82.8 17.2001V12.7001Z" fill="#B74746"/>
<path d="M93.3 17.3001C93.3 16.6001 92.9 16.3001 92.2 16.3001H86.8V18.3001H92.2C92.9 18.3001 93.3 17.9001 93.3 17.3001ZM93.3 12.7001C93.3 12.0001 92.9 11.7001 92.2 11.7001H86.8V13.7001H92.2C92.9 13.7001 93.3 13.4001 93.3 12.7001ZM95.9 17.3001C95.9 19.7001 94.7 20.8001 92.4 20.8001H84.2V9.1001H92.4C94.7 9.1001 95.9 10.3001 95.9 12.6001C95.9 13.7001 95.6 14.5001 95.2 14.9001C95.6 15.5001 95.9 16.3001 95.9 17.3001Z" fill="#B74746"/>
<path d="M108.9 20.9001H106.3V12.7001L99.8 20.9001H97.2V9.1001H99.8V17.3001L106.3 9.1001H108.9V20.9001Z" fill="#B74746"/>
<path d="M117.5 15.0001L122.2 9.1001H119.2L115.5 13.7001H112.8V9.1001H110.2V20.9001H112.8V16.3001H115.5L119.2 20.9001H122.2L117.5 15.0001Z" fill="#B74746"/>
</svg>
