<svg width="143" height="122" viewBox="0 0 143 122" fill="none" xmlns="http://www.w3.org/2000/svg">
<path fill-rule="evenodd" clip-rule="evenodd" d="M70.8635 0.994873C71.4158 0.994873 71.8635 1.44259 71.8635 1.99487V7.17975L77.9952 4.05949C78.4875 3.80902 79.0895 4.00499 79.34 4.49721C79.5905 4.98943 79.3945 5.59151 78.9023 5.84198L73.0677 8.81101L126.484 36.0152C126.758 36.1546 126.953 36.412 127.012 36.7134L142.435 115.133C142.526 115.598 142.279 116.063 141.843 116.247L130.781 120.926C130.658 120.978 130.525 121.005 130.391 121.005H10.9127C10.7575 121.005 10.6046 120.969 10.4658 120.9L1.09944 116.221C0.702352 116.022 0.483545 115.586 0.562123 115.149L14.6672 36.7293C14.7226 36.4213 14.9189 36.157 15.1978 36.0151L68.6592 8.81028L62.8306 5.84183C62.3384 5.59119 62.1427 4.98906 62.3933 4.49692C62.6439 4.00478 63.2461 3.80901 63.7382 4.05964L69.8635 7.17914V1.99487C69.8635 1.44259 70.3112 0.994873 70.8635 0.994873ZM70.8633 9.93277L28.2863 31.5988L12.1147 119.005H129.195L113.403 31.5975L70.8633 9.93277ZM115.641 32.7374L131.153 118.597L140.316 114.722L125.143 37.5766L115.641 32.7374ZM10.1711 118.517L26.041 32.7414L16.5476 37.5723L2.66309 114.766L10.1711 118.517Z" fill="black"/>
<path opacity="0.1" fill-rule="evenodd" clip-rule="evenodd" d="M15.5635 37.3952L1.67896 114.589C1.60038 115.026 1.81919 115.462 2.21628 115.661L10.7017 119.9C10.8405 119.969 10.9935 120.005 11.1486 120.005H130.189C130.323 120.005 130.455 119.978 130.578 119.926L140.705 115.643C141.141 115.458 141.388 114.993 141.297 114.529L126.125 37.3836C126.065 37.0823 125.871 36.8249 125.597 36.6855L114.299 30.9315L71.3172 9.04165C71.0322 8.89649 70.6949 8.89643 70.4099 9.0415L27.3929 30.9315L16.0942 36.681C15.8153 36.8229 15.6189 37.0872 15.5635 37.3952ZM45.4891 48.366C43.4772 48.366 41.7783 49.8604 41.5217 51.8559L33.484 114.367C33.0996 117.357 35.4286 120.005 38.4432 120.005H103.202C106.221 120.005 108.552 117.349 108.159 114.355L99.9648 51.8461C99.7038 49.8549 98.0069 48.366 95.9987 48.366H45.4891Z" fill="#BF5002"/>
<path fill-rule="evenodd" clip-rule="evenodd" d="M41.39 43.496C41.39 40.2542 44.0181 37.6261 47.26 37.6261H94.7484C97.9903 37.6261 100.618 40.2542 100.618 43.496C100.618 46.7379 97.9903 49.366 94.7484 49.366H47.26C44.0181 49.366 41.39 46.7379 41.39 43.496ZM47.26 39.6261C45.1227 39.6261 43.39 41.3587 43.39 43.496C43.39 45.6334 45.1226 47.366 47.26 47.366H94.7484C96.8857 47.366 98.6184 45.6334 98.6184 43.496C98.6184 41.3587 96.8857 39.6261 94.7484 39.6261H47.26Z" fill="#BF5002"/>
<path fill-rule="evenodd" clip-rule="evenodd" d="M71.0042 80.4412C67.7623 80.4412 65.1342 77.8131 65.1342 74.5712L65.1342 60.8151C65.1342 57.5732 67.7623 54.9451 71.0042 54.9451C74.2461 54.9451 76.8741 57.5732 76.8741 60.8151L76.8741 74.5712C76.8741 77.8131 74.2461 80.4412 71.0042 80.4412ZM67.1342 74.5712C67.1342 76.7085 68.8669 78.4412 71.0042 78.4412C73.1415 78.4412 74.8741 76.7085 74.8741 74.5712L74.8741 60.8151C74.8741 58.6778 73.1415 56.9451 71.0042 56.9451C68.8669 56.9451 67.1342 58.6778 67.1342 60.8151L67.1342 74.5712Z" fill="black"/>
<path fill-rule="evenodd" clip-rule="evenodd" d="M67.1342 34.2309L67.1342 48.3661L65.1342 48.3661L65.1342 34.2309C65.1342 30.989 67.7623 28.361 71.0042 28.361C74.2461 28.361 76.8741 30.989 76.8741 34.2309L76.8741 48.3661L74.8741 48.3661L74.8741 34.2309C74.8741 32.0936 73.1415 30.361 71.0042 30.361C68.8669 30.361 67.1342 32.0936 67.1342 34.2309Z" fill="black"/>
<path opacity="0.1" d="M97.9729 83.2759C98.4378 83.5742 98.5741 84.1938 98.2617 84.6492C95.3421 88.9049 91.4466 92.4072 86.8949 94.8598C82.0494 97.4708 76.6195 98.8065 71.1158 98.7413C65.6121 98.6761 60.2153 97.2122 55.433 94.4873C50.9407 91.9275 47.1292 88.334 44.3112 84.0104C44.0097 83.5477 44.1606 82.9315 44.6324 82.6444L57.1424 75.0293C57.6142 74.7422 58.2268 74.8939 58.5432 75.3466C59.8832 77.2635 61.6344 78.8629 63.6737 80.0249C66.0032 81.3522 68.632 82.0653 71.3129 82.097C73.9938 82.1287 76.6387 81.4781 78.9989 80.2063C81.0652 79.0929 82.8538 77.5355 84.2388 75.6508C84.5658 75.2058 85.1819 75.0686 85.6467 75.3669L97.9729 83.2759Z" fill="#BF5002"/>
<path fill-rule="evenodd" clip-rule="evenodd" d="M70.0299 55.9456L69.9986 48.366L71.9986 48.3578L72.0299 55.9373L70.0299 55.9456Z" fill="black"/>
<path fill-rule="evenodd" clip-rule="evenodd" d="M59.5055 65.2898C59.5055 64.7375 59.9532 64.2898 60.5055 64.2898H81.0208C81.5731 64.2898 82.0208 64.7375 82.0208 65.2898C82.0208 65.8421 81.5731 66.2898 81.0208 66.2898H60.5055C59.9532 66.2898 59.5055 65.8421 59.5055 65.2898Z" fill="black"/>
<path fill-rule="evenodd" clip-rule="evenodd" d="M51.1617 83.0848C50.8855 82.6065 51.0494 81.9949 51.5277 81.7188L56.5478 78.8204C57.0261 78.5442 57.6377 78.7081 57.9138 79.1864C58.19 79.6647 58.0261 80.2763 57.5478 80.5524L52.5277 83.4508C52.0494 83.7269 51.4378 83.5631 51.1617 83.0848Z" fill="#BF5002"/>
<path fill-rule="evenodd" clip-rule="evenodd" d="M92.4072 83.3377C92.7 82.8694 92.5577 82.2524 92.0894 81.9596L87.1743 78.8866C86.706 78.5939 86.089 78.7362 85.7962 79.2044C85.5035 79.6727 85.6457 80.2897 86.114 80.5825L91.0292 83.6555C91.4975 83.9482 92.1145 83.806 92.4072 83.3377Z" fill="#BF5002"/>
<path fill-rule="evenodd" clip-rule="evenodd" d="M71.1941 94.5234C71.7463 94.5234 72.1941 94.0757 72.1941 93.5234L72.1941 87.7267C72.1941 87.1744 71.7463 86.7267 71.1941 86.7267C70.6418 86.7267 70.1941 87.1744 70.1941 87.7267L70.1941 93.5234C70.1941 94.0757 70.6418 94.5234 71.1941 94.5234Z" fill="#BF5002"/>
<path fill-rule="evenodd" clip-rule="evenodd" d="M40.5299 51.7284C40.8506 49.2341 42.9742 47.3661 45.4891 47.3661H95.9987C98.5089 47.3661 100.63 49.2273 100.956 51.7162L109.151 114.225C109.622 117.818 106.825 121.005 103.202 121.005H38.4432C34.8257 121.005 32.0308 117.828 32.4922 114.24L40.5299 51.7284ZM45.4891 49.3661C43.9801 49.3661 42.706 50.4869 42.5136 51.9835L34.4758 114.495C34.1683 116.887 36.0315 119.005 38.4432 119.005H103.202C105.617 119.005 107.482 116.88 107.168 114.485L98.9732 51.9762C98.7775 50.4828 97.5048 49.3661 95.9987 49.3661H45.4891Z" fill="black"/>
</svg>
