<svg width="124" height="81" viewBox="0 0 124 81" fill="none" xmlns="http://www.w3.org/2000/svg">
<path d="M9.35288 70.048V72.096H8.15288V74H5.92888V72.096H0.632875V70.048L4.36088 62.8H6.72888L3.01688 70.048H5.92888V67.392H8.15288V70.048H9.35288ZM12.6821 73.808C12.4155 74.0747 12.0955 74.208 11.7221 74.208C11.3488 74.208 11.0288 74.0747 10.7621 73.808C10.4955 73.5413 10.3621 73.2213 10.3621 72.848C10.3621 72.4747 10.4955 72.1547 10.7621 71.888C11.0288 71.6213 11.3488 71.488 11.7221 71.488C12.0955 71.488 12.4155 71.6213 12.6821 71.888C12.9488 72.1547 13.0821 72.4747 13.0821 72.848C13.0821 73.2213 12.9488 73.5413 12.6821 73.808ZM14.0674 62.8H21.2994V64.672L17.5074 74H15.1714L18.8514 64.912H14.0674V62.8Z" fill="black"/>
<path d="M37 59L39.0206 65.2188H45.5595L40.2694 69.0623L42.2901 75.2812L37 71.4377L31.7099 75.2812L33.7306 69.0623L28.4405 65.2188H34.9794L37 59Z" fill="#EA8632"/>
<path d="M56.5 59L58.5206 65.2188H65.0595L59.7694 69.0623L61.7901 75.2812L56.5 71.4377L51.2099 75.2812L53.2306 69.0623L47.9405 65.2188H54.4794L56.5 59Z" fill="#EA8632"/>
<path d="M76 59L78.0206 65.2188H84.5595L79.2694 69.0623L81.2901 75.2812L76 71.4377L70.7099 75.2812L72.7306 69.0623L67.4405 65.2188H73.9794L76 59Z" fill="#EA8632"/>
<path d="M95.5 59L97.5206 65.2188H104.06L98.7694 69.0623L100.79 75.2812L95.5 71.4377L90.2099 75.2812L92.2306 69.0623L86.9405 65.2188H93.4794L95.5 59Z" fill="#EA8632"/>
<path d="M115 60.2135L116.664 65.3347L116.748 65.5938H117.021H122.405L118.049 68.7589L117.829 68.9191L117.913 69.1782L119.577 74.2994L115.22 71.1343L115 70.9742L114.78 71.1343L110.423 74.2994L112.087 69.1782L112.171 68.9191L111.951 68.7589L107.595 65.5938H112.979H113.252L113.336 65.3347L115 60.2135Z" stroke="#EA8632" stroke-width="0.75"/>
<path d="M109.71 75.2812L115 71.4377V59L112.979 65.2188H106.44L111.731 69.0623L109.71 75.2812Z" fill="#EA8632"/>
<path d="M65.1364 0.655973C63.7925 0.231991 62.3525 0 60.8646 0C56.5208 0 52.6329 1.95992 50.033 5.04779L56.7127 10.6636L65.1364 0.655973Z" fill="#1A73E8"/>
<path d="M50.033 5.04761C47.8914 7.5912 46.7183 10.8102 46.7211 14.1352C46.7211 16.7911 47.2491 18.951 48.121 20.879L56.7127 10.6634L50.033 5.04761Z" fill="#EA4335"/>
<path d="M60.8645 8.73549C61.8957 8.73643 62.9052 9.03202 63.774 9.58745C64.6428 10.1429 65.3349 10.935 65.7686 11.8706C66.2023 12.8061 66.3597 13.8461 66.2222 14.8681C66.0846 15.8901 65.6579 16.8515 64.9923 17.6391L73.408 7.63153C71.6806 4.30345 68.7026 1.79731 65.1283 0.663818L56.7207 10.6714C57.2273 10.0647 57.8611 9.57683 58.5771 9.24229C59.2932 8.90774 60.0741 8.73472 60.8645 8.73549Z" fill="#4285F4"/>
<path d="M60.8645 19.551C57.8806 19.551 55.4567 17.1271 55.4567 14.1432C55.4532 12.8727 55.9012 11.6423 56.7207 10.6714L48.121 20.887C49.5929 24.1428 52.0328 26.7587 54.5447 30.0546L64.9923 17.6391C64.4848 18.2388 63.8524 18.7206 63.1395 19.0508C62.4266 19.381 61.6502 19.5517 60.8645 19.551Z" fill="#FBBC04"/>
<path d="M64.7843 33.4384C69.5042 26.0627 74.9999 22.7109 74.9999 14.1352C74.9999 11.7833 74.424 9.5674 73.408 7.61548L54.5527 30.0546C55.3527 31.1025 56.1607 32.2145 56.9446 33.4464C59.8085 37.8782 59.0166 40.5341 60.8645 40.5341C62.7124 40.5341 61.9205 37.8702 64.7843 33.4384Z" fill="#34A853"/>
</svg>
