<svg width="781" height="453" viewBox="0 0 781 453" fill="none" xmlns="http://www.w3.org/2000/svg">
<path opacity="0.7" d="M282.761 21.8115C282.123 28.5128 291.534 26.997 296.319 25.4015C300.466 24.4431 305.491 30.0547 307.484 32.9803C318.331 32.6612 318.118 36.5703 316.656 38.5647C314.423 46.2232 316.523 52.1267 317.852 54.1211C320.112 56.9133 325.748 63.0561 330.214 65.2898C334.68 67.5236 333.936 71.0071 333.005 72.4697C331.277 76.5915 329.098 84.516 334.202 83.2395C339.306 81.9631 346.165 87.4943 348.956 90.4194C350.684 90.2865 354.858 89.2228 357.729 86.0317C360.6 82.8407 364.242 85.4999 365.704 87.2284C367.964 85.8988 374.238 84.3564 381.256 88.8239C388.274 93.2914 382.585 94.4083 378.863 94.4083C377.268 95.339 372.962 97.2004 368.495 97.2004C362.913 97.2004 362.514 100.79 361.716 104.779C361.078 107.97 359.59 108.502 358.925 108.369C357.729 109.3 355.416 114.033 355.735 125.521C356.134 139.881 376.471 142.274 382.452 143.072C388.434 143.87 388.434 158.628 379.262 155.437C371.925 152.884 369.293 154.374 368.894 155.437C366.103 161.155 359.643 172.669 356.134 172.988C352.625 173.307 349.089 180.035 347.76 183.359C347.76 190.14 351.349 192.533 356.134 196.921C359.962 200.431 356.931 200.777 354.937 200.511L344.57 199.314C343.506 199.314 341.3 198.517 340.981 195.326C340.662 192.134 336.594 191.071 334.6 190.938C333.67 191.736 329.895 193.251 322.239 192.932C314.582 192.613 287.945 198.384 275.583 201.309C274.653 197.852 271.117 190.459 264.418 188.545C257.719 186.63 243.815 189.076 237.701 190.539C232.251 193.198 220.314 198.357 216.167 197.719C212.02 197.081 204.337 198.517 201.014 199.314C190.487 202.825 183.07 197.32 180.677 194.129C174.297 190.938 174.563 189.076 175.493 188.545C178.55 187.082 182.99 181.684 176.291 171.791C169.592 161.899 156.22 161.553 150.371 162.617C146.516 161.952 138.408 157.99 136.813 147.46C135.218 136.929 129.768 135.892 127.243 136.69C127.243 142.115 125.382 141.343 124.451 140.28L119.267 135.094C114.482 131.584 111.691 136.557 110.893 139.482C110.76 140.28 110.814 142.194 112.09 143.471C113.366 144.747 113.419 148.523 113.286 150.252C112.329 156.953 121.394 159.692 126.046 160.224C127.003 169.478 137.079 180.035 141.997 184.157C144.124 186.018 149.175 190.14 152.365 191.736C155.555 193.331 159.277 189.741 160.739 187.747C161.802 184.556 164.248 179.769 165.524 186.151C166.8 192.533 159.41 196.522 155.555 197.719V211.281C157.283 212.743 160.101 216.626 157.549 220.455C154.997 224.284 150.903 223.646 149.175 222.848C147.261 229.869 137.744 237.74 133.224 240.798C132.56 243.191 129.715 249.893 123.654 257.551C117.593 265.21 105.975 261.008 100.924 257.95C92.816 262.737 74.6057 272.39 66.6304 272.709C58.6551 273.028 54.8004 280.022 53.87 283.479C43.9806 291.456 21.0383 288.664 10.8034 286.271C8.54369 285.872 3.46608 285.553 1.233 287.467C-1.00008 289.382 0.302549 291.988 1.233 293.052L8.41077 299.833C9.04879 304.938 12.6643 308.608 14.3922 309.805C18.2204 308.528 24.2284 311.134 26.754 312.597C37.2548 316.719 59.8514 324.564 66.2317 322.968C72.6119 321.372 72.0802 325.494 71.0169 327.755C72.6119 329.749 76.8388 332.86 80.986 329.35C85.1331 325.84 105.576 319.378 115.28 316.586L119.267 313.395C120.543 307.651 125.648 304.619 128.04 303.822C129.635 303.423 133.942 301.189 138.408 295.445C142.874 289.701 149.308 290.393 151.966 291.456L160.34 286.271C161.271 279.49 165.444 268.002 174.696 276.299C183.947 284.595 185.994 276.831 185.861 271.911C186.127 269.252 188.653 262.577 196.628 257.152C204.603 251.728 209.521 259.413 210.983 263.933C210.585 266.593 208.591 271.592 203.806 270.315C199.02 269.039 196.495 270.847 195.83 271.911C195.192 276.698 192.906 280.022 191.843 281.085C195.033 283 194.767 287.733 194.235 289.861C195.192 299.434 211.648 296.775 219.756 294.248C216.247 286.59 223.079 283.346 226.934 282.681C228.795 282.681 231.719 280.926 228.529 273.905C225.339 266.885 232.251 263.003 236.106 261.939C238.02 255.876 244.081 256.222 246.872 257.152C259.314 250.451 269.868 255.158 273.589 258.349C281.565 256.434 290.47 259.945 293.926 261.939C291.374 258.429 293.926 256.753 295.522 256.355C296.984 258.083 300.626 260.663 303.497 257.152C306.368 253.642 310.01 253.562 311.472 253.961C312.668 254.227 315.619 254.041 317.852 251.169C320.644 247.579 334.6 253.164 331.809 258.349C329.576 262.497 336.461 268.321 340.183 270.714C338.588 273.267 339.519 274.969 340.183 275.501C349.222 283.213 369.134 300.71 376.471 309.007C383.808 317.304 380.06 324.165 377.268 326.558C375.939 327.489 372.483 329.191 369.293 328.552C366.103 327.914 363.71 330.68 362.913 332.142C359.404 340.439 363.577 346.502 366.103 348.496C366.502 349.294 369.134 350.97 376.471 351.289C383.808 351.608 381.123 354.879 378.863 356.474L375.274 359.665C371.127 363.814 373.812 369.371 375.673 371.632C379.262 374.69 385.961 381.604 384.047 384.795C382.133 387.986 383.781 389.315 384.845 389.581C386.972 390.645 391.943 392.453 394.814 391.177C397.685 389.9 397.871 393.57 397.605 395.565C398.004 397.958 399.519 402.665 402.391 402.346C405.262 402.026 405.182 403.808 404.783 404.739C404.145 413.355 411.695 417.902 415.55 419.099C424.163 418.141 430.57 419.498 432.697 420.295C439.476 425.348 452.475 436.809 450.242 442.234C447.451 449.015 449.844 447.818 451.837 449.015C453.432 449.972 454.629 447.818 455.027 446.622C454.629 445.558 454.15 443.191 455.426 442.234C457.021 441.037 458.616 443.032 459.813 443.032C460.77 443.032 462.072 442.234 462.604 441.835C465.794 439.309 472.095 433.299 471.776 429.47C471.457 425.64 474.301 424.949 475.763 425.082C477.225 424.949 479.831 423.965 478.555 421.093C477.279 418.221 478.023 415.642 478.555 414.711C479.751 411.52 483.34 406.095 488.125 409.924C492.91 413.754 498.892 414.711 501.284 414.711C501.683 414.977 503.278 414.871 506.468 412.318C509.658 409.765 509.658 408.063 509.259 407.531C508.063 405.537 505.91 401.309 506.867 400.351C508.063 399.155 511.652 401.149 513.646 402.346C515.241 403.303 516.437 403.01 516.836 402.744C522.259 399.234 528.666 398.623 531.192 398.756C536.774 398.889 548.737 398.357 551.927 395.166C555.915 391.177 559.105 392.772 558.706 395.166C558.387 397.08 559.637 397.293 560.301 397.16C572.663 393.969 560.301 408.329 559.903 408.329C557.351 417.264 565.485 421.093 569.872 421.891C577.528 418.381 583.164 424.417 585.025 427.874C584.068 434.256 588.348 437.181 590.608 437.846C593.266 438.112 599.301 438.325 602.172 437.048C605.043 435.772 609.482 441.303 611.343 444.228C610.067 450.93 612.938 452.339 614.533 452.206C616.394 450.876 619.558 447.419 617.325 444.228C615.092 441.037 620.382 434.123 623.306 431.065C629.048 418.939 621.445 416.705 616.926 417.104C617.591 415.775 619.638 412.717 622.509 411.121C625.38 409.525 626.363 406.733 626.496 405.537C627.427 404.074 630.005 401.468 632.877 402.744C635.748 404.021 638.061 401.681 638.858 400.351C638.858 406.733 640.985 410.19 642.048 411.121C647.471 418.46 652.549 418.168 654.41 417.104C659.195 412.637 663.847 414.711 665.575 416.306C675.465 423.646 680.064 419.365 681.127 416.306C682.403 406.733 684.051 406.201 684.716 407.132C698.434 422.13 702.129 422.689 702.262 421.093C701.597 417.37 701.943 411.679 708.642 418.7C715.341 425.72 720.738 421.625 722.599 418.7C723.13 416.838 723.396 413.036 720.206 412.717C717.016 412.397 715.421 408.329 715.022 406.334C714.623 400.75 712.789 390.14 708.642 392.374C703.458 395.166 702.262 391.177 701.065 388.385C700.108 386.151 697.211 385.061 695.881 384.795C716.617 383.837 706.914 370.568 699.47 364.053C699.789 355.756 694.021 352.618 691.096 352.086C688.438 350.757 683.201 349.294 683.52 354.081C683.839 358.867 679.399 362.723 677.14 364.053C662.784 372.031 658.398 358.07 657.999 350.092C665.017 346.582 664.911 344.375 663.98 343.71C659.594 334.403 654.33 317.783 668.367 325.76C682.403 333.738 685.912 325.627 685.912 320.575C696.44 316.107 698.008 309.406 697.477 306.614C705.452 303.104 707.977 296.908 708.243 294.248C731.212 272.549 726.852 247.18 721.801 237.208C718.744 234.15 713.666 225.561 717.814 215.669C722.997 203.303 726.985 187.348 729.776 173.786C732.01 162.936 724.061 165.808 719.807 168.6C718.345 167.803 715.182 165.649 714.225 163.415C713.268 161.181 709.838 159.559 708.243 159.027C705.053 157.299 698.274 152.964 696.679 149.454C695.084 145.944 692.027 143.471 690.698 142.673C692.293 137.248 690.033 136.424 688.704 136.69C685.779 140.147 680.09 144.667 680.728 135.094C681.366 125.521 671.69 126.319 666.772 127.914C667.968 131.504 669.164 138.285 664.379 136.69C659.594 135.094 659.195 129.377 659.594 126.718C659.062 124.191 657.122 115.948 653.612 103.184C650.103 90.4194 645.504 96.2697 643.643 100.79C640.187 110.497 631.601 130.946 624.901 135.094C618.202 139.243 632.478 109.433 640.453 94.0094C638.858 75.5012 633.674 75.6608 631.282 78.0541C627.772 83.798 621.312 81.5111 618.521 79.6496C605.442 75.5012 594.462 76.8574 590.608 78.0541C588.88 78.9848 584.626 82.1227 581.436 87.2284C578.246 92.3341 573.992 89.3557 572.264 87.2284C570.536 85.7658 566.363 81.1654 563.492 74.4641C560.62 67.7629 551.396 69.2787 547.142 70.8742L533.185 74.4641C528.533 75.6608 518.112 76.6181 513.646 70.8742C509.18 65.1303 498.493 56.7803 493.708 53.3234C487.992 51.4619 473.131 47.739 459.414 47.739C445.696 47.739 434.823 51.4619 431.102 53.3234C409.409 48.8559 379.794 47.739 367.698 47.739C361.849 48.9356 350.711 49.893 352.944 44.1491C355.177 38.4051 349.621 36.7032 346.563 36.5703C345.633 36.9692 342.336 36.331 336.594 30.587C330.852 24.8431 308.415 22.3434 297.914 21.8115C293.129 19.0194 283.399 15.1103 282.761 21.8115Z" fill="#FBF3ED"/>
<path d="M257.974 42.1459C257.431 47.8449 265.442 46.5558 269.516 45.1989C273.047 44.3839 277.324 49.1562 279.021 51.6443C288.255 51.3729 288.074 54.6973 286.829 56.3934C284.928 62.9066 286.716 67.9272 287.848 69.6233C289.771 71.9979 294.569 77.222 298.371 79.1216C302.173 81.0213 301.54 83.9839 300.748 85.2277C299.277 88.733 297.421 95.4723 301.766 94.3868C306.111 93.3013 311.95 98.0052 314.327 100.493C315.798 100.38 319.351 99.4752 321.795 96.7614C324.239 94.0476 327.34 96.3091 328.585 97.7791C330.508 96.6483 335.849 95.3367 341.824 99.136C347.799 102.935 342.956 103.885 339.787 103.885C338.429 104.677 334.763 106.26 330.961 106.26C326.208 106.26 325.869 109.313 325.19 112.705C324.647 115.419 323.379 115.871 322.814 115.758C321.795 116.55 319.826 120.575 320.098 130.345C320.437 142.557 337.75 144.592 342.843 145.271C347.935 145.949 347.935 158.501 340.127 155.787C333.88 153.616 331.64 154.882 331.3 155.787C328.924 160.649 323.425 170.441 320.437 170.713C317.45 170.984 314.44 176.706 313.308 179.533C313.308 185.3 316.364 187.335 320.437 191.066C323.696 194.052 321.116 194.346 319.419 194.119L310.592 193.102C309.687 193.102 307.809 192.423 307.537 189.709C307.266 186.996 303.803 186.091 302.106 185.978C301.313 186.656 298.1 187.946 291.582 187.674C285.064 187.403 262.387 192.31 251.863 194.798C251.071 191.858 248.061 185.571 242.358 183.943C236.655 182.314 224.819 184.395 219.613 185.639C214.974 187.9 204.812 192.288 201.282 191.745C197.751 191.202 191.211 192.423 188.382 193.102C179.419 196.087 173.105 191.406 171.068 188.692C165.637 185.978 165.863 184.395 166.655 183.943C169.258 182.699 173.037 178.108 167.334 169.695C161.631 161.282 150.247 160.988 145.268 161.893C141.987 161.328 135.084 157.958 133.726 149.002C132.368 140.047 127.729 139.165 125.579 139.843C125.579 144.457 123.995 143.801 123.202 142.896L118.789 138.486C114.716 135.501 112.339 139.73 111.66 142.218C111.547 142.896 111.592 144.525 112.679 145.61C113.765 146.696 113.81 149.907 113.697 151.377C112.882 157.076 120.6 159.405 124.56 159.858C125.375 167.728 133.952 176.706 138.139 180.211C139.95 181.794 144.25 185.3 146.966 186.656C149.681 188.013 152.85 184.96 154.095 183.264C155 180.55 157.082 176.48 158.168 181.907C159.255 187.335 152.963 190.727 149.681 191.745V203.279C151.153 204.522 153.551 207.824 151.379 211.081C149.206 214.337 145.721 213.795 144.25 213.116C142.62 219.087 134.518 225.781 130.671 228.381C130.105 230.417 127.684 236.116 122.524 242.629C117.363 249.142 107.473 245.569 103.173 242.968C96.2708 247.039 80.7681 255.248 73.9786 255.519C67.1891 255.791 63.9076 261.739 63.1154 264.679C54.6965 271.463 35.1654 269.089 26.4522 267.053C24.5285 266.714 20.2059 266.443 18.3048 268.071C16.4037 269.699 17.5127 271.915 18.3048 272.82L24.4153 278.587C24.9585 282.929 28.0364 286.05 29.5075 287.068C32.7664 285.982 37.8812 288.198 40.0312 289.442C48.9707 292.947 68.2076 299.619 73.6392 298.262C79.0708 296.905 78.6181 300.41 77.7129 302.333C79.0708 304.029 82.6692 306.675 86.1997 303.69C89.7303 300.704 107.134 295.209 115.395 292.834L118.789 290.121C119.876 285.236 124.221 282.658 126.258 281.979C127.616 281.64 131.282 279.74 135.084 274.855C138.886 269.97 144.363 270.558 146.626 271.463L153.755 267.053C154.547 261.286 158.1 251.517 165.976 258.572C173.852 265.628 175.595 259.025 175.482 254.841C175.708 252.579 177.858 246.903 184.647 242.29C191.437 237.676 195.624 244.212 196.868 248.056C196.529 250.318 194.832 254.57 190.758 253.484C186.684 252.399 184.534 253.936 183.968 254.841C183.425 258.912 181.479 261.739 180.574 262.643C183.289 264.271 183.063 268.297 182.611 270.106C183.425 278.248 197.434 275.986 204.337 273.838C201.349 267.325 207.166 264.565 210.447 264C212.032 264 214.521 262.507 211.805 256.537C209.09 250.567 214.974 247.265 218.255 246.36C219.885 241.204 225.045 241.498 227.421 242.29C238.013 236.591 246.998 240.593 250.166 243.307C256.955 241.679 264.537 244.664 267.479 246.36C265.307 243.375 267.479 241.95 268.837 241.611C270.082 243.081 273.182 245.275 275.627 242.29C278.071 239.304 281.171 239.237 282.416 239.576C283.434 239.802 285.947 239.644 287.848 237.201C290.224 234.148 302.106 238.897 299.729 243.307C297.828 246.835 303.69 251.788 306.858 253.823C305.5 255.994 306.292 257.442 306.858 257.894C314.553 264.452 331.504 279.333 337.75 286.389C343.997 293.445 340.806 299.28 338.429 301.315C337.298 302.107 334.356 303.554 331.64 303.011C328.924 302.468 326.887 304.82 326.208 306.064C323.221 313.12 326.774 318.276 328.924 319.972C329.264 320.651 331.504 322.076 337.75 322.347C343.997 322.618 341.711 325.4 339.787 326.757L336.732 329.471C333.201 332.999 335.487 337.725 337.071 339.648C340.127 342.248 345.83 348.128 344.2 350.842C342.571 353.556 343.974 354.687 344.879 354.913C346.69 355.817 350.922 357.355 353.366 356.27C355.81 355.184 355.969 358.305 355.743 360.001C356.082 362.037 357.372 366.039 359.816 365.768C362.26 365.497 362.193 367.012 361.853 367.803C361.31 375.131 367.737 378.998 371.019 380.016C378.352 379.201 383.806 380.355 385.616 381.033C391.387 385.33 402.454 395.077 400.553 399.691C398.177 405.458 400.214 404.44 401.911 405.458C403.269 406.272 404.287 404.44 404.627 403.422C404.287 402.518 403.88 400.505 404.966 399.691C406.324 398.673 407.682 400.369 408.701 400.369C409.515 400.369 410.624 399.691 411.077 399.352C413.793 397.203 419.156 392.092 418.885 388.835C418.613 385.579 421.035 384.991 422.28 385.104C423.524 384.991 425.742 384.154 424.656 381.712C423.57 379.269 424.203 377.076 424.656 376.284C425.674 373.57 428.73 368.957 432.803 372.213C436.877 375.47 441.969 376.284 444.006 376.284C444.345 376.51 445.703 376.42 448.419 374.249C451.135 372.078 451.135 370.63 450.795 370.178C449.777 368.482 447.944 364.886 448.759 364.072C449.777 363.054 452.832 364.75 454.53 365.768C455.888 366.582 456.906 366.333 457.245 366.107C461.862 363.122 467.317 362.602 469.467 362.715C474.219 362.828 484.403 362.376 487.119 359.662C490.514 356.27 493.23 357.627 492.89 359.662C492.619 361.29 493.682 361.471 494.248 361.358C504.772 358.644 494.248 370.856 493.909 370.856C491.736 378.455 498.661 381.712 502.396 382.39C508.913 379.405 513.711 384.539 515.296 387.479C514.481 392.906 518.125 395.394 520.048 395.959C522.311 396.185 527.449 396.366 529.893 395.281C532.337 394.195 536.117 398.899 537.701 401.387C536.615 407.086 539.059 408.284 540.417 408.171C542.001 407.041 544.694 404.101 542.793 401.387C540.892 398.673 545.396 392.793 547.885 390.192C552.774 379.88 546.301 377.98 542.454 378.319C543.019 377.189 544.762 374.588 547.206 373.231C549.65 371.874 550.488 369.5 550.601 368.482C551.393 367.238 553.588 365.022 556.033 366.107C558.477 367.193 560.446 365.203 561.125 364.072C561.125 369.5 562.935 372.44 563.84 373.231C568.457 379.473 572.78 379.224 574.364 378.319C578.438 374.52 582.398 376.284 583.869 377.641C592.288 383.883 596.204 380.242 597.109 377.641C598.195 369.5 599.598 369.047 600.164 369.839C611.842 382.594 614.988 383.069 615.101 381.712C614.535 378.546 614.83 373.706 620.533 379.676C626.236 385.647 630.83 382.164 632.414 379.676C632.867 378.093 633.093 374.859 630.378 374.588C627.662 374.317 626.304 370.856 625.964 369.16C625.625 364.411 624.063 355.388 620.533 357.287C616.12 359.662 615.101 356.27 614.083 353.895C613.268 351.995 610.801 351.068 609.67 350.842C627.322 350.028 619.062 338.743 612.725 333.202C612.996 326.146 608.085 323.478 605.596 323.026C603.333 321.895 598.874 320.651 599.146 324.722C599.417 328.792 595.638 332.072 593.714 333.202C581.493 339.987 577.759 328.114 577.419 321.329C583.394 318.344 583.304 316.467 582.512 315.902C578.777 307.986 574.296 293.852 586.246 300.637C598.195 307.421 601.183 300.523 601.183 296.227C610.145 292.427 611.48 286.728 611.027 284.354C617.817 281.368 619.967 276.099 620.193 273.838C639.747 255.384 636.035 233.809 631.735 225.328C629.133 222.728 624.81 215.423 628.341 207.01C632.754 196.494 636.149 182.925 638.525 171.391C640.426 162.164 633.659 164.607 630.038 166.981C628.793 166.303 626.1 164.471 625.285 162.571C624.471 160.672 621.551 159.292 620.193 158.84C617.477 157.37 611.706 153.684 610.348 150.698C608.991 147.713 606.388 145.61 605.256 144.932C606.614 140.318 604.691 139.617 603.559 139.843C601.07 142.783 596.226 146.628 596.769 138.486C597.313 130.345 589.075 131.023 584.888 132.38C585.906 135.433 586.925 141.2 582.851 139.843C578.777 138.486 578.438 133.624 578.777 131.363C578.325 129.214 576.673 122.203 573.685 111.348C570.698 100.493 566.783 105.468 565.198 109.313C562.256 117.567 554.946 134.958 549.243 138.486C543.54 142.014 555.693 116.663 562.483 103.546C561.125 87.8058 556.711 87.9415 554.675 89.9769C551.687 94.8617 546.188 92.9168 543.811 91.3338C532.677 87.8058 523.33 88.9592 520.048 89.9769C518.577 90.7684 514.956 93.437 512.24 97.7791C509.525 102.121 505.903 99.5883 504.432 97.7791C502.961 96.5353 499.408 92.6228 496.964 86.9238C494.52 81.2248 486.667 82.5139 483.046 83.8708L471.164 86.9238C467.203 87.9415 458.332 88.7557 454.53 83.8708C450.728 78.9859 441.63 71.8848 437.556 68.9448C432.69 67.3618 420.039 64.1957 408.361 64.1957C396.683 64.1957 387.427 67.3618 384.258 68.9448C365.791 65.1455 340.579 64.1957 330.282 64.1957C325.303 65.2133 315.82 66.0275 317.721 61.1426C319.622 56.2578 314.892 54.8104 312.29 54.6973C311.498 55.0365 308.691 54.4938 303.803 49.6089C298.914 44.7241 279.813 42.5982 270.874 42.1459C266.8 39.7713 258.517 36.4469 257.974 42.1459Z" fill="#4780CD"/>
<path d="M448.781 220.606C448.837 221.692 435.843 222.952 415.943 224.994C396.044 224.994 378.849 225.551 378.793 224.465C378.737 223.379 394.834 222.27 414.142 219.897C434.027 218.109 448.725 219.52 448.781 220.606Z" fill="#A3BFE6"/>
<path d="M404.674 203.893C402.897 204.688 405.077 210.948 403.955 215.463C403.901 215.678 403.705 215.823 403.484 215.823L396.197 215.823L390.051 215.038C389.012 214.806 386.843 213.789 386.48 211.576C386.116 209.363 384.477 211.459 383.703 212.784C380.852 219.033 386.437 221.518 388.192 223.295C388.294 223.398 388.431 223.462 388.576 223.462L410.352 223.462L433.122 220.95C433.161 220.946 433.2 220.937 433.237 220.923C440.255 218.393 438.11 212.991 437.296 210.105C437.28 210.049 437.256 209.998 437.222 209.951C436.227 208.579 434.3 206.614 434.159 209.242C434.015 211.916 431.517 212.973 430.285 213.168L425.401 213.996L414.72 214.97C414.364 215.002 414.091 214.659 414.14 214.304C414.306 213.11 413.796 212.449 413.409 211.992C413.29 211.851 413.102 211.784 412.918 211.807C412.434 211.868 411.542 211.936 410.352 211.909C408.964 211.878 409.3 211.293 409.715 210.936C409.784 210.877 409.872 210.844 409.962 210.834C411.548 210.648 412.275 210.178 412.544 209.822C412.656 209.675 412.778 209.518 412.953 209.456C418.335 207.544 428.668 202.429 429.716 202.128C431.049 201.746 435.267 206.152 439.435 209.911C443.602 213.669 445.952 217.226 446.211 218.415C446.424 219.394 447.073 219.774 447.576 219.907C447.885 219.989 448.056 219.691 447.899 219.413C447.105 218.009 445.174 215.033 442.786 212.414C440.015 209.374 435.696 205.467 433.883 203.893C432.945 202.951 430.714 201.475 429.294 201.616C427.879 201.757 417.427 206.721 412.318 209.214C412.278 209.233 412.237 209.247 412.193 209.255C410.73 209.529 409.915 209.562 409.541 209.612C409.394 209.632 409.233 209.65 409.098 209.588C408.519 209.321 407.811 208.643 408.841 208.008C409.68 207.491 409.686 205.668 409.533 204.572C409.495 204.299 409.668 204.037 409.892 203.878C410.443 203.487 410.693 202.708 410.783 202.104C410.821 201.849 411.02 201.64 411.278 201.618C411.834 201.571 412.556 201.475 412.466 201.244C412.394 201.061 411.94 200.998 411.508 200.996C411.16 200.994 410.823 200.677 410.71 200.348C410.497 199.727 409.869 199.055 408.377 199C406.431 198.928 405.475 201.66 405.171 203.374C405.127 203.622 404.904 203.79 404.674 203.893Z" fill="white"/>
<path d="M353.669 323.464L353.43 323.85C338.52 347.849 311.008 375.727 279.201 396.348L278.82 396.595C277.544 396.845 276.634 397.241 274.713 398.107L278.707 395.586C310.419 375.026 335.248 351.303 350.077 327.434C351.818 325.82 352.352 325.184 353.669 323.464Z" fill="#BF5002"/>
<path d="M261.964 405.518L262.364 405.303C266.725 403.737 268.94 402.579 273.595 400.485L262.395 406.318C238.259 419.31 213.543 427.149 189.5 426L186.5 425.5C210.326 426.649 237.885 418.48 261.964 405.518Z" fill="#BF5002"/>
<path fill-rule="evenodd" clip-rule="evenodd" d="M596.002 95.1219C597.086 95.3367 598.109 95.8332 599.324 96.7728C601.624 98.5507 602.616 101.288 602.746 102.274L604.013 104.023L605.984 103.148C606.404 102.604 608.035 100.91 610.535 99.5061C611.526 98.9498 613.135 98.5936 614.804 98.6817C616.489 98.7707 617.859 99.2889 618.614 100.063L622.482 98.826L621.214 97.526C619.577 95.8481 618.43 95.7952 616.257 95.6805C614.068 95.5648 610.478 95.3721 608.757 96.3385C607.415 97.0917 606.267 97.9236 605.348 98.6933C604.582 97.0841 603.353 95.2957 601.546 93.8986C600.021 92.7201 598.32 92.488 596.537 92.1348C594.775 91.7859 593.09 91.3352 590.96 91.7766L589.182 92.1451L591.697 95.3336C593.568 94.9458 594.895 94.9027 596.002 95.1219Z" fill="#BF5002"/>
<path fill-rule="evenodd" clip-rule="evenodd" d="M499.572 188.974C498.314 189.05 496.512 189.628 494.032 191.206C487.99 195.051 486.114 195.327 483.842 194.973L479.471 194.019H479.476L479.924 194.089C481.987 194.411 487.696 194.161 493.544 190.439C496.094 188.817 498.047 188.156 499.518 188.068C501.002 187.979 502.001 188.476 502.568 189.154C502.722 189.338 502.849 189.544 502.956 189.717C502.972 189.743 502.988 189.768 503.003 189.793C503.128 189.993 503.234 190.149 503.361 190.273C503.992 190.892 504.979 191.518 506.227 191.702C507.459 191.884 508.988 191.641 510.739 190.462C512.522 188.068 514.909 188.17 519.022 189.634C520.919 190.309 523.336 190.339 525.624 190.08C527.902 189.822 529.999 189.285 531.224 188.872L531.654 188.727L528.954 190.274C527.673 190.706 528.073 190.716 525.726 190.982C523.387 191.247 520.807 191.234 518.718 190.49C514.888 189.127 512.151 190.427 511.317 191.163C511.302 191.176 511.287 191.188 511.271 191.198C509.342 192.505 507.579 192.819 506.095 192.601C504.622 192.384 503.466 191.648 502.725 190.922C502.514 190.715 502.359 190.476 502.233 190.274C502.215 190.245 502.198 190.218 502.181 190.191C502.071 190.013 501.98 189.868 501.871 189.736C501.518 189.314 500.817 188.9 499.572 188.974Z" fill="#A3BFE6"/>
<path fill-rule="evenodd" clip-rule="evenodd" d="M391.856 104.036C390.598 104.112 388.796 104.689 386.316 106.267C380.274 110.112 378.398 110.389 376.126 110.034L371.755 109.081H371.76L372.208 109.151C374.271 109.473 379.98 109.223 385.828 105.501C388.378 103.879 390.331 103.218 391.802 103.13C393.286 103.041 394.285 103.538 394.852 104.216C395.006 104.4 395.133 104.606 395.24 104.779C395.256 104.805 395.272 104.83 395.287 104.854C395.412 105.054 395.518 105.211 395.645 105.335C396.276 105.954 397.263 106.58 398.511 106.764C399.743 106.946 401.272 106.703 403.023 105.524C404.806 103.13 407.193 103.232 411.306 104.696C413.203 105.371 415.62 105.4 417.908 105.141C420.186 104.884 422.283 104.346 423.508 103.934L423.938 103.789L421.238 105.336C419.957 105.767 420.357 105.778 418.01 106.044C415.671 106.309 413.091 106.295 411.002 105.552C407.172 104.189 404.435 105.489 403.601 106.225C403.586 106.237 403.571 106.249 403.555 106.26C401.626 107.567 399.863 107.881 398.379 107.663C396.906 107.446 395.75 106.71 395.009 105.984C394.798 105.777 394.643 105.538 394.517 105.336C394.499 105.307 394.482 105.28 394.465 105.253C394.355 105.075 394.264 104.929 394.155 104.798C393.802 104.376 393.101 103.962 391.856 104.036Z" fill="#A3BFE6"/>
<path fill-rule="evenodd" clip-rule="evenodd" d="M97.6914 278.878C97.1278 278.912 96.3203 279.171 95.2094 279.878C92.5024 281.6 91.6623 281.724 90.6445 281.565L88.6862 281.138H88.6882L88.8892 281.169C89.8133 281.314 92.3708 281.202 94.991 279.534C96.1331 278.807 97.0083 278.511 97.6671 278.472C98.3319 278.432 98.7797 278.655 99.0333 278.958C99.1024 279.041 99.1594 279.133 99.2075 279.211C99.2147 279.222 99.2216 279.234 99.2284 279.245C99.2844 279.334 99.3317 279.404 99.3886 279.46C99.6717 279.737 100.114 280.018 100.673 280.1C101.225 280.181 101.91 280.073 102.694 279.544C103.493 278.472 104.562 278.518 106.405 279.174C107.255 279.476 108.337 279.489 109.362 279.373C110.383 279.258 111.323 279.017 111.871 278.832L112.064 278.767L110.854 279.46C110.281 279.654 110.46 279.658 109.408 279.777C108.361 279.896 107.205 279.89 106.269 279.557C104.553 278.946 103.327 279.529 102.953 279.858C102.946 279.864 102.94 279.869 102.932 279.874C102.068 280.46 101.279 280.601 100.614 280.503C99.9536 280.405 99.4359 280.076 99.1039 279.75C99.0092 279.658 98.94 279.551 98.8834 279.46C98.8754 279.447 98.8677 279.435 98.8603 279.423C98.8109 279.343 98.7703 279.278 98.7211 279.219C98.5632 279.03 98.249 278.845 97.6914 278.878Z" fill="#A3BFE6"/>
<path fill-rule="evenodd" clip-rule="evenodd" d="M557.628 226.831C556.657 226.949 555.049 227.602 552.077 229.494C549.063 231.412 546.818 232.148 545.025 232.346C543.553 232.508 541.826 233.016 540.882 232.847C540.681 232.811 541.065 232.876 540.882 232.847L541.645 231.244C541.852 231.277 541.434 231.207 541.645 231.244C542.583 231.411 543.595 231.59 544.925 231.443C546.545 231.264 548.659 230.593 551.59 228.727C554.563 226.835 556.227 225.832 557.421 225.688C558.04 225.613 558.869 225.746 559.274 225.93C559.596 226.075 559.612 226.478 559.842 226.652C559.885 226.685 559.926 226.716 559.967 226.746C560.944 227.468 563.007 228.532 565.335 229.063C567.668 229.595 570.17 229.572 572.113 228.255L572.124 228.248C573.381 227.449 576.203 225.959 580.374 227.443C584.218 228.812 585.514 228.308 587.983 227.476L591.259 227.875L590.829 228.02C588.287 228.877 584.197 229.768 580.069 228.299C575.793 227.875 574.885 228.476 572.617 229.011C570.373 230.528 567.571 230.505 565.133 229.948C562.687 229.39 560.509 228.275 559.427 227.476C559.373 227.437 559.323 227.399 559.274 227.362C559.045 227.19 558.865 227.055 558.643 226.955C558.398 226.844 558.091 226.775 557.628 226.831Z" fill="#A3BFE6"/>
<path fill-rule="evenodd" clip-rule="evenodd" d="M444.595 119.878C443.624 119.995 442.016 120.649 439.044 122.54C436.03 124.459 433.785 125.194 431.992 125.392C430.521 125.555 428.793 126.062 427.849 125.894C427.648 125.858 428.032 125.923 427.849 125.894L428.612 124.291C428.819 124.323 428.401 124.254 428.612 124.291C429.551 124.457 430.562 124.636 431.892 124.49C433.513 124.311 435.626 123.639 438.557 121.774C441.53 119.882 443.195 118.879 444.389 118.735C445.007 118.66 445.836 118.793 446.242 118.976C446.563 119.122 446.579 119.525 446.809 119.699C446.852 119.731 446.894 119.763 446.934 119.792C447.912 120.514 449.974 121.578 452.302 122.11C454.635 122.642 457.137 122.619 459.08 121.302L459.091 121.295C460.348 120.496 463.171 119.006 467.341 120.49C471.185 121.858 472.482 121.355 474.95 120.523L478.227 120.921L477.796 121.066C475.254 121.923 471.165 122.815 467.037 121.346C462.76 120.921 461.852 121.523 459.584 122.058C457.34 123.575 454.539 123.552 452.1 122.995C449.654 122.437 447.476 121.322 446.394 120.523C446.341 120.483 446.29 120.445 446.242 120.409C446.012 120.237 445.832 120.102 445.61 120.002C445.365 119.891 445.058 119.822 444.595 119.878Z" fill="#A3BFE6"/>
<path fill-rule="evenodd" clip-rule="evenodd" d="M557.007 211.752C555.151 210.848 553.694 211.029 552.865 211.357C552.628 211.45 552.394 211.565 552.147 211.69C552.101 211.713 552.056 211.737 552.009 211.76C551.808 211.863 551.595 211.972 551.381 212.07C550.843 212.315 550.259 212.63 549.618 212.976C549.546 213.015 549.474 213.054 549.401 213.093C548.681 213.481 547.898 213.897 547.07 214.264C545.416 214.999 543.542 215.561 541.533 215.342C540.094 215.184 538.976 214.66 537.997 214.111C537.733 213.963 537.485 213.817 537.246 213.676C536.572 213.279 535.967 212.923 535.3 212.691C534.437 212.39 533.489 212.311 532.242 212.742C530.974 213.181 529.384 214.152 527.271 215.993C527.257 216.005 527.243 216.016 527.227 216.026C525.299 217.333 523.536 217.647 522.051 217.429C520.578 217.212 519.262 217.256 518.521 216.53C518.314 216.327 518.317 215.317 518.186 215.114C518.157 215.07 518.131 215.029 518.105 214.988C518.003 214.829 517.914 214.691 517.811 214.562C517.285 213.902 516.208 213.12 514.865 213.051C513.554 212.983 511.875 213.591 510.106 215.925C507.878 218.866 504.799 219.916 502.04 220.193C499.563 220.442 497.304 220.071 496.1 219.873C495.967 219.851 495.847 219.831 495.741 219.815L495.292 219.745L498.938 219.649C499.306 219.708 498.803 219.626 498.938 219.649C500.146 219.846 499.6 219.525 501.949 219.289C504.55 219.028 507.355 218.052 509.383 215.376C511.28 212.873 513.223 212.057 514.912 212.144C516.57 212.229 517.871 213.18 518.521 213.996C518.657 214.166 518.776 214.352 518.88 214.515C518.903 214.551 518.926 214.586 518.947 214.619C519.074 214.815 519.186 214.973 519.317 215.101C519.949 215.72 520.936 216.346 522.184 216.53C523.415 216.712 524.945 216.469 526.695 215.29C528.837 213.426 530.524 212.376 531.945 211.884C533.392 211.384 534.55 211.468 535.598 211.833C536.358 212.097 537.3 212.332 537.997 212.742C538.222 212.875 539.488 213.309 539.711 213.434C540.645 213.959 540.368 214.301 541.632 214.439C543.412 214.634 545.113 214.14 546.702 213.434C547.495 213.082 548.251 212.681 548.97 212.293C549.043 212.254 549.116 212.215 549.189 212.176C549.824 211.833 550.436 211.502 551.004 211.243C551.198 211.155 551.388 211.058 551.589 210.955C551.637 210.931 551.686 210.906 551.736 210.881C551.986 210.753 552.252 210.622 552.531 210.512C553.596 210.091 555.319 209.919 557.404 210.935C557.722 211.09 559.598 211.372 559.934 211.547C561.391 212.302 561.51 213.056 563.745 213.397C566.473 213.812 566.355 214.794 571.357 212.293L575.887 211.547L575.481 211.75C570.349 214.316 566.559 214.744 563.608 214.294C561.21 213.929 559.385 212.98 557.925 212.22C557.602 212.052 557.296 211.893 557.007 211.752Z" fill="#A3BFE6"/>
<path fill-rule="evenodd" clip-rule="evenodd" d="M453.542 291.418C451.869 290.52 448.129 291.757 448.129 291.757C442.535 295.269 437.079 294.306 433.24 292.365C431.061 291.263 428.24 291.436 426.122 292.696C421.991 295.153 417.855 294.484 414.663 292.915C411.772 292.365 409.339 292.696 406.683 293.53C401.445 297.163 395.062 296.935 391.929 296.146L391.488 296.035L394.325 295.643C397.861 296.146 401.211 296.22 406.165 292.784C408.673 291.045 411.707 290.238 415.064 292.1C418.07 293.578 421.866 294.17 425.658 291.915C428.687 289.256 431.174 290.302 433.65 291.554C437.288 293.393 442.393 294.287 447.647 290.988C449.53 289.805 451.966 289.541 453.971 290.618C456.984 292.235 460.684 293.745 463.984 294.096C465.632 294.271 467.15 294.155 468.425 293.645C469.689 293.139 470.738 292.239 471.452 290.794L471.653 290.387L470.761 292.893C470.329 293.53 470.136 293.586 468.762 294.488C467.305 295.071 465.626 295.184 463.888 294.999C460.419 294.63 456.597 293.058 453.542 291.418Z" fill="#A3BFE6"/>
<path fill-rule="evenodd" clip-rule="evenodd" d="M277.263 213.232C274.36 213.921 271.309 215.423 268.996 216.851C268.159 217.368 267.195 217.675 266.191 217.675H261.315L266.191 216.767C267.008 216.767 267.808 216.517 268.519 216.078C270.878 214.621 274.022 213.068 277.053 212.348C280.06 211.634 283.11 211.708 285.098 213.735C287.831 215.166 287.312 215.32 288.96 215.969C289.336 215.969 289.711 215.906 290.08 215.791C291.835 215.243 294.317 214.655 296.851 214.416C299.372 214.179 302.007 214.28 304.026 215.166C305.001 215.594 305.919 215.969 306.865 215.969L311.278 216.877H306.865C305.702 216.877 304.617 216.417 303.661 215.998C301.855 215.205 299.407 215.087 296.936 215.32C294.478 215.552 292.058 216.125 290.351 216.658C289.905 216.797 289.438 216.877 288.96 216.877C287.087 216.877 285.604 215.548 284.449 214.371C282.81 212.7 280.189 212.537 277.263 213.232Z" fill="#A3BFE6"/>
<path fill-rule="evenodd" clip-rule="evenodd" d="M445.456 303.458C442.553 304.147 439.502 305.649 437.189 307.077C436.352 307.594 435.388 307.902 434.385 307.902H429.508L434.385 306.994C435.201 306.994 436.001 306.743 436.712 306.304C439.071 304.848 442.215 303.294 445.246 302.575C448.253 301.86 451.303 301.934 453.291 303.961C456.025 305.392 455.505 305.547 457.153 306.195C457.529 306.195 457.904 306.132 458.273 306.017C460.028 305.469 462.51 304.881 465.044 304.642C467.565 304.405 470.2 304.506 472.219 305.392C473.194 305.82 474.113 306.195 475.059 306.195L479.471 307.103H475.059C473.895 307.103 472.81 306.644 471.854 306.224C470.048 305.432 467.6 305.314 465.129 305.547C462.671 305.778 460.251 306.351 458.544 306.884C458.098 307.023 457.631 307.103 457.153 307.103C455.28 307.103 453.797 305.774 452.643 304.597C451.004 302.926 448.382 302.763 445.456 303.458Z" fill="#A3BFE6"/>
<path fill-rule="evenodd" clip-rule="evenodd" d="M526.556 273.185C523.653 273.874 520.602 275.375 518.289 276.803C517.452 277.32 516.488 277.628 515.484 277.628H510.608L515.484 276.72C516.301 276.72 517.101 276.469 517.812 276.031C520.171 274.574 523.315 273.021 526.346 272.301C529.353 271.587 532.403 271.661 534.391 273.688C537.124 275.119 536.605 275.273 538.253 275.921C538.629 275.921 539.004 275.858 539.373 275.743C541.128 275.196 543.61 274.608 546.144 274.369C548.665 274.131 551.3 274.233 553.319 275.119C554.294 275.547 555.212 275.921 556.158 275.921L560.571 276.83H556.158C554.995 276.83 553.91 276.37 552.954 275.95C551.148 275.158 548.7 275.04 546.229 275.273C543.771 275.505 541.351 276.077 539.644 276.61C539.198 276.749 538.731 276.83 538.253 276.83C536.38 276.83 534.897 275.501 533.742 274.324C532.103 272.652 529.482 272.49 526.556 273.185Z" fill="#A3BFE6"/>
<path fill-rule="evenodd" clip-rule="evenodd" d="M84.1682 268.394C82.2881 268.841 80.3116 269.813 78.8132 270.739C78.2708 271.073 77.6463 271.273 76.9964 271.273H73.8372L76.9964 270.684C77.525 270.684 78.0437 270.522 78.5042 270.238C80.0325 269.294 82.0689 268.288 84.0323 267.822C85.9804 267.359 87.9562 267.407 89.2439 268.72C91.0146 269.647 90.6782 269.747 91.7458 270.167C91.9894 270.167 92.2324 270.126 92.4715 270.052C93.6081 269.697 95.2161 269.316 96.8574 269.161C98.4905 269.007 100.197 269.073 101.505 269.647C102.137 269.924 102.732 270.167 103.345 270.167L106.203 270.756H103.345C102.591 270.756 101.888 270.458 101.269 270.186C100.099 269.673 98.5135 269.596 96.9126 269.747C95.32 269.897 93.7528 270.268 92.6468 270.613C92.3577 270.704 92.0555 270.756 91.7458 270.756C90.5321 270.756 89.5716 269.895 88.8238 269.132C87.7621 268.049 86.0637 267.944 84.1682 268.394Z" fill="#A3BFE6"/>
<path fill-rule="evenodd" clip-rule="evenodd" d="M653.953 208.045C654.045 210.077 653.324 213.576 655.427 214.676V214.922C652.585 215.172 649.425 218.489 651.882 221.224C654.529 224.171 659.706 222.227 662.058 220.08C663.599 223.995 669.259 222.198 672.129 220.817C671.782 223.39 670.634 225.85 670.409 228.431C671.525 228.635 672.484 228.519 673.602 228.431C674.043 226.297 674.785 224.205 675.076 222.045C677.912 223.078 681.636 221.769 684.164 220.326C685.76 224.38 691.79 221.886 694.725 220.817L694.479 222.536C697.597 223.089 697.59 221.239 698.655 218.852H698.9C699.178 219.924 699.314 221.181 700.184 221.967C701.991 223.599 704.705 221.848 705.532 220.08H706.023C707.586 223.294 712.013 223.148 714.62 221.308L714.374 222.29C717.911 223.336 717.092 220.292 718.795 218.361C718.795 219.415 718.583 220.835 719.288 221.721C721.067 223.956 723.11 219.637 723.462 218.361H723.707C723.707 221.781 725.013 223.861 728.374 221.308L728.128 222.29C733.688 223.934 730.516 216.505 735.005 215.905C734.668 218.406 732.814 224.604 737.952 222.182C738.569 221.892 739.119 221.455 739.672 221.062C741.311 224.12 744.278 221.859 746.058 220.326C746.133 223.424 748.773 222.593 750.479 221.062L750.233 222.29C754.138 224.167 753.095 219.136 756.374 219.097C756.374 221.912 757.912 223.934 760.794 221.702C762.637 220.276 763.321 218.106 764.805 216.4C765.428 215.684 766.011 215.31 766.935 215.168C766.666 217.563 763.537 218.353 764.044 221.052C764.309 222.462 765.756 222.543 766.935 222.535C769.539 222.517 771.489 220.907 772.584 218.606L771.602 218.361C771.019 219.361 768.896 221.87 767.519 220.659C766.766 219.997 767.672 219.14 768.168 218.676C769.316 217.605 771.261 215.577 769.335 214.122C765.605 211.303 763.082 217.632 761.436 219.578C758.97 222.493 759.932 217.875 760.266 216.641L761.04 213.94C760.134 213.724 758.561 213.351 757.812 214.122C756.401 215.575 757.637 217.346 754.9 217.378C755.017 216.508 755.721 215.099 755.443 214.263C755.116 213.277 752.965 213.595 752.478 214.263C750.849 216.501 751.797 219.697 748.514 220.817C748.563 218.44 749.645 216.269 749.988 213.94C745.397 212.847 746.441 218.596 743.356 220.817C742.87 218.582 744.133 216.128 744.584 213.94C739.652 212.482 741.443 219.462 737.462 220.817C737.226 218.551 740.149 211.54 734.761 214.184C734.223 214.448 733.76 214.807 733.286 215.168L733.532 213.94C732.738 213.751 731.452 213.41 730.722 213.946C729.278 215.009 729.41 218.311 728.18 219.788C726.746 221.511 725.8 220.006 725.988 218.361L726.23 216.641L726.655 214.185C723.179 212.513 722.056 217.065 721.005 219.589H720.76C720.464 218.346 721.522 214.681 720.611 213.946C719.939 213.405 718.58 213.701 718.05 214.292C717.527 214.874 717.247 215.711 716.883 216.396C715.739 218.55 710.904 223.804 709.216 219.097C710.538 219.097 711.995 219.239 713.135 218.434C714.743 217.298 714.821 214.827 712.897 213.996C709.615 212.579 707.111 215.228 705.896 217.869C705.421 218.904 704.068 221.235 702.611 220.55C698.596 218.662 705.295 215.084 703.488 213.6C702.072 212.438 699.996 215.3 699.146 216.15L700.21 212.712C700.551 211.689 701.4 210.156 701.233 209.064C701.053 207.889 698.77 208.106 698.232 208.86C695.701 212.402 697.4 218.864 692.514 220.571C693.053 219.174 693.751 217.686 693.4 216.15C692.749 213.3 688.965 213.151 686.866 214.432C684.202 216.057 684.4 219.459 681.216 220.571C682.489 218.079 683.302 211.948 678.516 214.164C677.956 214.423 677.513 214.78 677.041 215.168L677.286 213.94C671.942 212.667 674.834 219.805 670.164 220.326C671.113 218.295 671.926 215.625 669.427 214.431C672.036 211.931 671.919 207.117 667.216 208.141C661.522 209.381 664.115 217.199 660.338 219.883C658.97 220.855 654.035 221.653 654.537 218.606C654.891 216.458 659.104 216.84 658.977 215.454C658.893 214.541 657.063 213.741 656.655 212.712C658.082 213.378 660.081 213.949 661.521 212.955C664.557 210.858 661.103 207.958 658.62 208.071C657.393 208.126 656.301 208.571 655.181 209.027C654.943 208.299 654.706 208.167 653.953 208.045Z" fill="#010101"/>
<path fill-rule="evenodd" clip-rule="evenodd" d="M657.392 210.501C658.253 213.227 661.319 209.569 657.392 210.501V210.501Z" fill="white"/>
<path fill-rule="evenodd" clip-rule="evenodd" d="M665.743 214.431C666.582 214.079 670.128 212.023 668.504 210.758C666.911 209.518 665.923 213.57 665.743 214.431Z" fill="white"/>
<path fill-rule="evenodd" clip-rule="evenodd" d="M687.848 220.817C688.918 220.388 691.207 216.931 689.668 215.938C687.826 214.749 687.604 219.991 687.848 220.817Z" fill="white"/>
<path fill-rule="evenodd" clip-rule="evenodd" d="M709.462 217.869C710.591 217.425 711.236 216.888 711.427 215.659C710.247 215.994 709.765 216.709 709.462 217.869Z" fill="white"/>
<path fill-rule="evenodd" clip-rule="evenodd" d="M677.532 220.571C677.809 218.78 679.195 217.908 678.76 215.905C676.657 216.286 674.373 220.467 677.532 220.571Z" fill="white"/>
<path fill-rule="evenodd" clip-rule="evenodd" d="M666.48 220.571C666.642 219.535 667.38 219.045 667.733 218.106C668.245 216.74 666.972 215.971 665.811 216.72C664.34 217.669 664.696 220.432 666.48 220.571Z" fill="white"/>
<path fill-rule="evenodd" clip-rule="evenodd" d="M185.836 82.2729C187.223 81.6365 188.087 80.4778 188.488 79.6947L188.693 79.2943L188.758 78.8493C188.909 77.8241 188.99 76.0054 188.265 74.4438C187.865 73.5818 187.127 72.6189 185.87 72.1257C184.636 71.6415 183.035 71.6845 181.918 72.0833C180.852 72.4636 180.095 73.0587 179.391 73.8838C178.671 74.7269 178.461 75.7777 178.37 76.7084C178.201 78.4389 178.928 79.9368 179.517 80.7694L179.748 81.0963L180.063 81.3429C181.019 82.0914 182.063 82.5657 183.144 82.6946L183.721 86.0455L179.265 86.4225L178.968 89.6289L184.184 88.7304L186.252 100.737C186.109 100.72 185.97 100.705 185.832 100.69C185.337 100.637 184.861 100.585 184.278 100.458C182.996 100.177 181.297 99.5262 179.132 97.539L182.154 95.7591L179.96 94.1957L175.237 96.2354L176.204 101.847L178.735 103.128L178.787 100.792C180.644 102.181 182.274 102.808 183.695 103.119C184.431 103.28 185.146 103.358 185.685 103.416C185.872 103.436 186.038 103.454 186.176 103.473C186.799 103.556 186.975 103.65 187.07 103.734L188.488 104.876L189.295 103.235C189.419 103.147 189.595 103.033 189.838 102.884C189.984 102.795 190.149 102.696 190.329 102.588C190.933 102.226 191.704 101.765 192.497 101.214C193.74 100.353 195.13 99.2136 196.304 97.6917L197.559 99.8857L199.105 97.9019L198.138 92.2907L192.968 92.1069L191.436 93.8952L194.906 94.8977C193.874 96.6781 192.383 97.978 190.944 98.9759C190.234 99.4684 189.575 99.8633 188.981 100.219C188.965 100.229 188.949 100.238 188.932 100.248L186.869 88.2679L192.005 87.3832L190.774 84.6281L186.406 85.583L185.836 82.2729ZM185.337 79.3759C185.028 79.6456 184.645 79.8682 184.195 79.96C184.151 79.9691 184.105 79.9769 184.06 79.9833C183.638 80.0427 183.161 79.9863 182.637 79.7504C182.353 79.6224 182.054 79.4414 181.742 79.1973C181.002 78.1499 179.889 75.754 182.8 74.7154C185.71 73.6769 186.307 76.7882 186.063 78.4531C185.913 78.7463 185.667 79.0879 185.337 79.3759Z" fill="#BF5002"/>
<path d="M699.064 413.275L702.976 404.871L693.467 397.94L705.502 399.443L710.121 389.519L713.286 400.415L724.62 401.83L714.955 406.159L717.699 415.602L708.629 408.992L699.064 413.275Z" fill="#BF5002"/>
<path fill-rule="evenodd" clip-rule="evenodd" d="M690.149 202.231L692.091 201.63L701.339 187.155L713.97 188.502L723.769 201.63L725.85 202.231V203.017H690.149V202.231ZM702.104 189.805C699.662 195.185 696.038 199.921 694.532 201.616L702.104 196.074L709.951 201.419C710.052 201.496 710.149 201.562 710.242 201.616L709.951 201.419C707.791 199.765 703.868 193.081 702.104 189.805Z" fill="#BF5002"/>
<rect x="150.236" y="44.1472" width="2.16243" height="4.99991" fill="#594435"/>
<path d="M152.255 19.2533L145.628 25.6129L147.77 27.2866L142.214 35.5208H146.498L139.871 44.8261H162.766L156.272 35.9224L159.887 34.7844L155.469 27.2866L158.481 26.4832L152.255 19.2533Z" fill="#509B52"/>
<rect x="100.994" y="212.918" width="2.05756" height="4.75743" fill="#594435"/>
<path d="M102.915 189.231L96.609 195.283L98.6467 196.875L93.3597 204.71H97.4364L91.1304 213.564H112.915L106.736 205.092L110.176 204.009L105.972 196.875L108.838 196.111L102.915 189.231Z" fill="#509B52"/>
<rect x="737.288" y="300.375" width="2.17542" height="5.02995" fill="#594435"/>
<path d="M739.317 275.332L732.651 281.73L734.805 283.413L729.215 291.697H733.525L726.858 301.058H749.891L743.358 292.101L746.995 290.956L742.55 283.413L745.581 282.605L739.317 275.332Z" fill="#509B52"/>
<rect x="223.381" y="345.773" width="2.03565" height="4.70678" fill="#594435"/>
<rect x="203.513" y="330.366" width="1.74494" height="4.0346" fill="#594435"/>
<rect x="234.589" y="315.677" width="1.17386" height="2.71417" fill="#594435"/>
<path d="M225.281 322.339L219.042 328.326L221.058 329.901L215.827 337.653H219.861L213.622 346.412H235.175L229.062 338.031L232.465 336.959L228.305 329.901L231.141 329.145L225.281 322.339Z" fill="#509B52"/>
<path d="M205.141 310.278L199.793 315.409L201.522 316.76L197.038 323.404H200.495L195.147 330.913H213.622L208.382 323.729L211.299 322.81L207.734 316.76L210.165 316.112L205.141 310.278Z" fill="#09650D"/>
<path d="M235.683 302.164L232.085 305.616L233.248 306.525L230.232 310.995H232.557L228.96 316.046H241.388L237.863 311.213L239.825 310.595L237.427 306.525L239.062 306.089L235.683 302.164Z" fill="#0A530D"/>
<path fill-rule="evenodd" clip-rule="evenodd" d="M305.648 4.18352L292.668 1.47569V0L305.949 1.47569L305.648 4.18352ZM283.874 2.69971L274.467 4.17539L280.919 1.47569L283.452 0.00812471L283.874 2.69971ZM455.315 0.0312828L461.299 1.50697L459.18 2.67655H454.662L455.315 0.0312828ZM265.999 6.15686L260.351 6.88105L255.577 9.47716L245.155 12.7975L247.356 9.34141L265.172 3.56092L265.999 6.15686ZM323.426 9.34141C321.108 7.84251 318.816 6.69816 317.439 6.11239L318.448 4.18352C319.962 4.82734 321.623 6.08557 324.079 7.6732C326.517 9.24938 329.087 11.2593 330.779 13.5153L329.426 14.5301C328.019 12.654 325.763 10.8517 323.426 9.34141ZM469.058 5.13671C471.196 6.3287 473.186 7.57572 473.926 8.0582L471.624 8.77509C470.927 8.32093 468.507 7.68327 466.433 6.52693L469.058 5.13671ZM452.721 10.3101C452.876 9.02178 453.477 8.34756 453.943 7.67206L456.11 8.77509C455.858 9.14219 455.521 9.84763 455.425 10.6373C455.334 11.3939 455.466 12.1586 456.035 12.8401L454.662 14.0085C453.507 12.6239 452.561 11.6316 452.721 10.3101ZM240.676 17.5435L234.773 20.1259L233.681 17.6298L236.787 17.5435L239.584 15.0474L240.676 17.5435ZM470.781 22.7629C468.275 23.9556 465.385 24.5084 463.477 24.6626L463.257 21.947C464.94 21.811 467.437 22.9587 469.563 21.947C471.734 20.9138 473.127 17.9032 473.26 16.1895L475.977 16.4013C475.727 19.5985 473.242 21.5917 470.781 22.7629ZM458.199 27.135C457.147 24.9225 457.459 22.5804 456.89 20.8793L458.195 19.7786C458.743 21.4138 459.669 23.8822 460.659 25.9649C461.157 27.0112 460.212 27.395 460.659 28.0382C460.884 28.3609 462.509 29.0993 462.651 29.2317C462.735 29.3093 462.776 29.3324 462.776 29.3324C462.776 29.3324 462.74 29.3125 462.668 29.2986L462.151 31.9737C461.572 31.8617 461.115 31.5232 460.797 31.2273C460.459 30.9135 460.146 30.5238 459.861 30.1142C459.29 29.2928 458.723 28.2363 458.199 27.135ZM227.86 24.3875L217.715 32.1349L216.061 29.9695L224.632 24.957L227.86 24.3875ZM335.265 28.6691C335.212 26.7898 335.032 24.7559 334.881 23.4622L336.563 24.4486C336.72 25.7988 337.933 26.6141 337.988 28.5931C338.016 29.581 338.011 30.5606 337.947 31.405C337.888 32.1876 337.768 33.0595 337.453 33.6904L336.008 32.1843C336.061 32.0774 335.172 31.9764 335.23 31.2007C335.284 30.4868 335.291 29.6103 335.265 28.6691ZM452.656 29.1677L445.408 31.9102L445.896 29.1677L451.692 26.6195L452.656 29.1677ZM425.412 37.8626C420.173 38.9497 416.768 38.4121 413.124 38.9386L410.449 37.7115C414.054 37.1907 419.614 37.2091 424.786 36.1361C427.373 35.5993 429.9 34.0875 431.92 33.5149C433.989 32.9283 435.452 32.3796 436.169 31.9284L437.62 34.2339C436.535 34.9174 434.721 35.5525 432.663 36.1361C430.555 36.7336 428.031 37.3193 425.412 37.8626ZM475.287 47.9402L465.472 37.1677L467.969 37.6795L477.301 46.1053L475.287 47.9402ZM401.509 42.5331L389.559 44.9311L391.887 41.801L400.973 39.8619L401.509 42.5331ZM203.396 46.7038C201.57 48.8768 199.637 51.3233 198.415 52.9113L196.256 51.2501C197.494 49.6408 200.054 48.1623 201.911 45.9513C202.839 44.8468 203.15 42.7977 203.939 41.9537C204.689 41.1522 205.437 40.4135 206.011 40.0483L207.474 42.3468C207.237 42.498 206.711 42.9783 205.929 43.8147C205.186 44.6085 204.309 45.6163 203.396 46.7038ZM337.403 44.7782C335.289 43.5703 335.638 41.4961 335.23 40.9867L335.822 40.3465C335.829 40.3535 335.882 40.4141 336.008 40.5287C336.136 40.6455 336.319 40.8 336.563 40.9867C337.052 41.3596 337.769 41.8493 338.755 42.4127L337.403 44.7782ZM364.437 46.6673C358.693 46.9133 354.642 46.7601 350.959 46.6673L349.181 44.0782C352.815 44.1698 358.649 44.1881 364.32 43.9453C370.052 43.6998 371.276 44.8414 374.102 43.9453L379.072 44.894C375.848 45.9162 370.12 46.4239 364.437 46.6673ZM484.224 54.7118C482.844 54.0348 480.926 50.9727 480.11 50.3683H482.319C483.035 50.8987 484.224 51.6774 485.424 52.2658C486.024 52.5602 486.591 52.7894 487.08 52.9223C487.595 53.0623 487.89 53.0578 488.012 53.0297V55.5514C487.248 55.7276 487.053 55.7384 486.365 55.5514C485.651 55.3572 484.913 55.0502 484.224 54.7118ZM569.915 55.135L565.098 55.7193L565.574 54.0026L570.546 52.9948L569.915 55.135ZM599.045 56.8578C594.041 56.2278 589.516 54.8508 579.823 54.8508L577.186 52.9948C586.969 52.9948 594.248 53.5078 599.386 54.1546C604.472 54.795 607.566 55.5791 608.899 56.1792L607.781 58.6637C606.845 58.2424 604.078 56.1792 599.045 56.8578ZM558.459 57.2515H554.203L555.76 55.135L558.459 54.527V57.2515ZM545.512 58.774L532.744 60.3062L535.022 57.6721L540.543 57.3856L545.188 56.0689L545.512 58.774ZM512.906 60.3884C507.623 59.9774 504.628 59.0447 500.698 58.5321L498.028 56.0707C501.929 56.5795 507.897 57.266 513.118 57.6721C515.731 57.8755 517.104 58.5259 518.958 58.5321C519.887 58.5352 521.678 57.9874 522.247 57.927C522.531 57.8968 522.743 57.8611 522.89 57.8256C522.995 57.8002 523.035 57.7822 523.034 57.7835C523.034 57.7835 523.017 57.7916 522.992 57.8078L524.465 60.0996C524.159 60.2967 523.813 60.4054 523.53 60.4738C523.227 60.547 522.889 60.5987 522.534 60.6363C521.825 60.7116 520.952 60.7405 519.978 60.7373C518.024 60.7307 515.545 60.5937 512.906 60.3884ZM194.981 58.3876L190.861 66.3118L190.858 63.7688L192.564 57.1307L194.981 58.3876ZM635.356 68.5553C631.317 66.2933 622.484 62.6972 617.316 60.8505L615.884 57.6708C620.979 59.4912 629.627 63.5959 633.91 65.994L635.356 68.5553ZM656.642 79.6156L652.831 76.526L644.783 73.7905L647.136 72.7296L657.843 77.1703L656.642 79.6156ZM670.772 89.2011C668.872 86.8102 666.051 85.3519 664.694 84.2265L666.433 82.1293C667.92 83.3617 670.182 85.5293 672.211 88.0829C674.216 90.6062 676.119 93.6623 676.681 96.6576L674.003 97.1597C673.566 94.8292 672.695 91.6223 670.772 89.2011ZM675.122 118.46L675.445 112.531L675.122 106.624L677.017 107.816L677.847 118.46H675.122ZM676.097 130.031C676.178 128.178 675.805 126.321 676.043 125.263L678.701 125.861C678.495 126.775 678.241 128.352 678.167 130.031C678.092 131.74 677.732 132.075 678.167 133.234L676.097 135.509C675.466 133.828 676.016 131.852 676.097 130.031ZM681.829 148.334L678.486 142.666L680.993 141.599L684.395 149.588L681.829 148.334ZM689.093 163.426L686.268 157.757L686.809 154.72L691.395 161.969L689.093 163.426ZM701.142 175.314C698.878 172.9 698.377 170.426 696.648 168.892L696.326 166.857C698.099 168.43 700.965 172.823 703.301 175.314C704.467 176.558 705.392 175.949 706.242 177.083C707.049 178.159 706.763 177.718 706.981 178.718L705.335 180.889C705.257 180.528 704.872 179.797 704.063 178.718C703.296 177.696 702.275 176.522 701.142 175.314Z" fill="#BF5002"/>
<path fill-rule="evenodd" clip-rule="evenodd" d="M674.52 389.543C667.843 384.218 667.197 380.553 668.542 378.213L670.009 380.213C669.699 380.752 669.893 383.583 676.217 388.626L674.52 389.543ZM688.155 396.639L683.614 394.376L685.21 393.199L689.597 394.726L688.155 396.639ZM672.748 371.138L678.087 369.512L679.389 371.525L674.274 372.363L672.748 371.138ZM692.546 365.823L702.622 360.886L701.752 363.183L690.767 368.547L692.546 365.823ZM708.806 356.246L706.668 354.558L711.709 346.817L714.465 335.943L716.984 334.343L716.984 344.211L708.806 356.246ZM688.77 294.668L691.543 303.099L688.082 301.692L686.375 293.551L689.249 284.61L691.557 282.928L688.77 294.668ZM711.474 324.628C711.974 325.281 712.518 326.202 712.383 327.23L709.681 326.876C709.679 326.898 709.677 326.91 709.677 326.91C709.673 326.91 709.646 326.723 709.311 326.285C708.937 325.797 708.343 325.208 707.551 324.527C706.369 323.509 704.896 322.408 703.348 321.251C702.819 320.856 702.282 320.454 701.744 320.047C699.693 318.493 697.874 317.777 696.57 316.24C695.926 315.481 695.089 313.677 694.885 312.748C694.655 311.696 693.177 312.34 694.044 311.537L697.648 311.853C697.521 311.97 697.513 312.014 697.547 312.165C697.607 312.44 697.839 312.895 698.388 313.542C699.469 314.815 701.306 316.297 703.389 317.875C703.888 318.252 704.4 318.635 704.913 319.019C706.483 320.192 706.291 320.903 707.551 321.988C708.39 322.71 710.929 323.917 711.474 324.628ZM701.079 269.803L699.137 270.817L696.131 276.939L694.885 275.032L698.84 268.25L701.079 269.803ZM705.589 258.163L704.356 264.647L701.897 263.474L705.589 255.73L705.589 258.163ZM711.689 240.373C710.852 243.574 709.741 242.792 709.364 245.072L707.098 248.953C707.484 246.615 708.19 242.987 709.053 239.684C709.484 238.034 709.962 236.438 710.469 235.114C710.949 233.858 709.738 235.831 710.469 235.114L714.173 233.853C713.909 234.112 713.495 234.827 713.013 236.088C712.557 237.28 712.108 238.77 711.689 240.373Z" fill="#BF5002"/>
<path fill-rule="evenodd" clip-rule="evenodd" d="M677.735 430.653C675.691 428.584 680.325 427.441 681.569 426.563C680.301 429.612 678.688 435.125 675.69 436.895C675.26 437.148 674.727 437.228 674.445 436.722C674.062 436.032 674.723 435.239 674.378 434.525C673.71 433.141 671.74 433.875 671.278 435.01C669.86 438.495 674.202 439.612 676.712 438.887C679.739 438.012 681.433 434.309 681.824 431.42H682.08C681.876 433.033 681.229 435.839 682.27 437.261C685.03 441.033 688.622 433.765 688.982 431.675H689.237L688.579 435.51C688.433 436.582 688.131 438.515 688.625 439.518C689.123 440.531 691.218 440.221 691.639 439.286C692.144 438.166 691.734 436.46 691.816 435.254C691.975 432.942 692.458 430.636 692.836 428.352C692.994 427.4 693.592 425.775 693.169 424.855C692.824 424.104 691.467 424.157 690.799 424.344C689.592 424.682 689.235 426.571 688.798 427.586C687.686 430.165 686.65 433.733 684.381 435.51C683.489 431.764 685.326 428.002 685.403 424.263C684.656 424.168 683.851 423.943 683.103 424.121C682.054 424.369 681.247 425.233 680.291 425.693C678.276 426.662 673.802 426.587 673.721 429.631C673.661 431.862 676.931 432.839 677.735 430.653Z" fill="#010101"/>
<path fill-rule="evenodd" clip-rule="evenodd" d="M719.144 432.442C719.761 430.266 721.296 427.552 721.323 425.3C721.34 423.878 718.826 423.967 718.192 424.855C715.96 427.98 717.144 433.852 714.005 436.33C710.244 439.299 708.148 434.273 711.475 431.675C711.521 432.352 711.429 432.817 711.22 433.465C713.01 433.993 716.101 432.563 713.921 430.577C711.975 428.804 708.171 430.35 706.902 432.197C706.128 433.323 705.946 434.707 705.001 435.737C704.378 436.416 703.634 436.746 702.784 437.043C703.424 435.386 704.333 433.424 703.434 431.679C701.809 428.526 696.962 429.858 695.279 432.187C693.846 434.171 693.201 438.344 696.394 439C699.184 439.573 704.053 438.119 706.107 436.276C707.331 440.076 711.949 439.524 714.543 437.554L714.287 439.088C717.532 439.664 717.524 437.738 718.633 435.254H718.888C719.178 436.37 719.318 437.678 720.224 438.496C722.257 440.332 725.086 438.125 726.045 436.276C728.074 439.918 730.354 439.019 733.714 437.986C734.982 437.596 736.083 437.721 737.293 437.043C738.77 440.775 741.925 438.528 743.939 436.788C743.995 441.607 749.784 437.556 750.329 434.743C748.837 435.197 745.511 438.938 746.675 434.749L747.006 433.465C743.431 431.744 743.52 436.052 740.871 437.299C740.505 435.071 741.82 431.903 744.45 431.774C745.53 431.721 747.553 433.212 748.262 431.899C749.233 430.101 745.092 429.877 744.194 429.887C741.861 429.912 739.838 431.048 738.478 432.953C737.289 434.62 737.115 436.523 734.736 436.788C735.724 434.674 736.571 431.896 733.97 430.653C735.095 429.575 736.053 428.472 735.999 426.819C735.9 423.785 732.224 423.37 730.145 424.766C726.932 426.924 727.411 431.085 726.144 434.231C725.711 435.308 724.426 437.453 722.989 437.108C718.602 436.053 724.852 431.229 723.841 429.968C722.488 428.28 720.002 431.584 719.144 432.442Z" fill="#010101"/>
<path fill-rule="evenodd" clip-rule="evenodd" d="M730.136 430.653C731.01 430.287 734.7 428.147 733.01 426.831C731.352 425.54 730.323 429.757 730.136 430.653Z" fill="white"/>
<path fill-rule="evenodd" clip-rule="evenodd" d="M697.928 437.299C699.043 436.852 701.424 433.255 699.823 432.221C697.906 430.984 697.675 436.439 697.928 437.299Z" fill="white"/>
<path fill-rule="evenodd" clip-rule="evenodd" d="M730.903 437.043C731.072 435.965 731.84 435.455 732.207 434.477C732.74 433.056 731.415 432.255 730.207 433.035C728.676 434.022 729.046 436.899 730.903 437.043Z" fill="white"/>
<path fill-rule="evenodd" clip-rule="evenodd" d="M188.807 114C188.702 118.328 181.318 114.443 178.602 114.644C176.824 114.775 174.694 116.369 175.723 118.37C176.65 120.173 180.625 120.161 179.643 117.749C178.641 117.86 177.671 116.982 179.029 116.485C179.883 116.173 180.914 116.656 181.726 116.916C180.893 118.797 180.586 123.557 178.74 124.673C178.387 124.887 177.987 124.758 177.818 124.379C177.589 123.863 178.003 123.316 177.83 122.792C177.38 121.432 175.665 122.255 175.271 123.173C173.918 126.337 178.476 127.173 180.473 126.003C182.726 124.683 183.673 120.135 184.225 117.749C185.725 118.17 187.981 118.887 189.412 117.955C191.17 116.811 191.152 114.028 188.807 114Z" fill="#010101"/>
<path fill-rule="evenodd" clip-rule="evenodd" d="M123.202 124.83C124.406 127.871 126.977 126.04 128.617 124.622C128.649 127.334 131.076 126.477 132.574 125.247L132.366 126.288C135.677 127.879 134.793 123.613 137.573 123.58C137.573 126.83 139.32 127.034 141.946 125.455L141.738 126.496C144.382 126.965 144.376 125.396 145.279 123.372H145.487C146.247 126.302 148.152 127.526 150.694 125.247L150.485 126.288C151.159 126.487 152.423 126.763 153.041 126.282C154.661 125.023 153.168 120.682 156.317 121.081C155.833 122.799 155.407 124.536 155.067 126.288C155.955 126.55 156.854 126.496 157.775 126.496C158.173 124.568 158.334 121.189 160.691 120.873C160.626 122.356 159.544 124.388 160.191 125.824C161.474 128.669 165.348 124.438 165.897 123.164L165.064 122.956C164.551 123.945 163.866 124.731 162.773 125.038C162.791 122.899 165.043 117.46 160.483 119.307C159.924 119.533 159.486 119.87 159.024 120.248C158.549 118.019 156.025 119.362 154.859 120.248L155.067 119.207C150.429 118.103 152.981 124.239 149.236 124.89C146.817 125.311 147.969 121.73 148.816 120.932C149.15 120.618 149.596 120.3 149.704 119.824C150.178 117.741 147.466 119.33 146.946 119.834L145.695 121.081L146.598 118.165C146.887 117.299 147.607 115.999 147.465 115.072C147.313 114.077 145.377 114.26 144.92 114.899C143.258 117.226 143.578 120.848 142.252 123.372C141.996 123.859 140.36 125.677 140.235 124.19C140.11 122.707 141.08 120.614 141.53 119.207C140.761 119.024 139.427 118.708 138.793 119.361C137.596 120.594 138.644 122.095 136.323 122.123C136.423 121.384 137.019 120.19 136.784 119.481C136.506 118.645 134.682 118.914 134.27 119.481C133.469 120.581 133.669 122.214 132.856 123.372C130.908 126.146 130.66 123.905 131.117 121.914C128.203 120.512 128.276 124.023 126.118 125.038C125.82 123.223 126.892 120.642 129.034 120.537C129.854 120.497 130.534 121.074 131.321 121.091C131.898 121.104 132.465 120.524 132.14 119.948C131.658 119.093 130.089 119.008 129.242 118.999C124.813 118.952 124.856 122.738 121.744 124.511C119.362 125.868 116.726 124.435 116.557 121.706C116.496 120.71 116.823 119.766 116.954 118.79C118.77 119.535 120.645 120.335 122.577 119.405C124.189 118.628 124.987 116.208 123.388 114.969C122.29 114.118 120.728 114.166 119.454 114.466C118.293 114.739 117.359 115.304 116.329 115.875C116.235 115.484 115.902 114.008 115.199 114.453C114.436 114.937 115.619 116.463 115.319 117.184C114.056 120.216 112.321 125.975 117.579 126.475C118.382 126.551 119.28 126.552 120.078 126.434C121.31 126.252 122.273 125.62 123.202 124.83Z" fill="#010101"/>
<path fill-rule="evenodd" clip-rule="evenodd" d="M227.336 124.83C228.416 122.717 229.105 117.518 225.047 119.397C224.572 119.617 224.197 119.92 223.796 120.248L224.004 119.207C223.331 119.046 222.241 118.758 221.622 119.213C220.93 119.721 220.879 121.153 220.626 121.914C219.903 124.088 215.82 126.893 214.632 123.58C215.921 123.58 217.346 123.702 218.334 122.701C220.575 120.426 217.388 118.649 215.257 119.14C211.803 119.937 212.507 124.173 209.425 125.038C209.443 122.899 211.695 117.46 207.135 119.307C206.576 119.533 206.138 119.87 205.677 120.248C205.201 118.019 202.677 119.362 201.511 120.248L201.719 119.207C201.046 119.046 199.956 118.758 199.337 119.213C198.707 119.676 198.575 121.002 198.355 121.706C197.671 123.892 193.597 127.065 192.347 123.58C193.636 123.58 195.061 123.702 196.049 122.701C197.457 121.272 196.478 119.275 194.638 119.038C192.85 118.807 190.897 119.669 190.056 121.29C189.436 122.485 189.137 124.471 187.566 124.853C185.585 125.335 187.658 120.736 187.667 120.062C187.679 119.114 186.2 118.982 185.581 119.421C184.237 120.374 183.36 125.57 185.069 126.405C186.845 127.273 188.517 125.533 189.64 124.413C191.108 127.432 195.005 126.789 197.346 125.247L197.138 126.288C197.811 126.487 199.075 126.763 199.694 126.282C201.313 125.023 199.821 120.682 202.969 121.081C202.485 122.799 202.059 124.536 201.719 126.288C202.607 126.55 203.506 126.496 204.427 126.496C204.825 124.568 204.986 121.189 207.343 120.873C207.278 122.356 206.196 124.388 206.843 125.824C207.835 128.023 211.169 125.397 211.925 124.413C213.392 127.432 217.29 126.789 219.631 125.247C219.204 127.314 218.356 129.394 218.173 131.495C219.119 131.668 219.932 131.569 220.88 131.495C221.253 129.685 221.883 127.911 222.13 126.08C224.553 126.963 227.99 125.84 230.044 124.413C231.237 128.117 236.722 125.843 239.208 124.83C239.424 127.678 242.722 126.245 243.998 125.038C243.745 125.688 243.525 126.512 242.91 126.915C241.701 127.708 240.085 127.392 239.418 128.999C238.455 131.317 241.212 132.15 242.956 131.464C244.701 130.777 244.603 129.062 245.602 127.79C246.202 127.027 247.241 126.548 247.955 125.871C247.699 127.773 246.872 129.587 246.705 131.495C247.652 131.668 248.465 131.569 249.413 131.495C249.786 129.685 250.416 127.911 250.662 126.08C252.788 126.854 256.874 126.059 258.435 124.35C259.714 122.95 260.192 120.577 262.325 120.248C262.097 122.279 259.444 122.949 259.874 125.238C260.099 126.434 261.326 126.502 262.325 126.495C264.534 126.48 266.187 125.115 267.116 123.164L266.283 122.956C265.84 123.716 263.645 126.21 262.69 124.761C262.007 123.722 265.071 122.08 265.001 120.665C264.914 118.897 262.801 118.706 261.492 119.254C258.833 120.368 258.696 123.842 255.869 124.83C256.949 122.717 257.638 117.518 253.579 119.397C253.105 119.617 252.729 119.92 252.329 120.248L252.537 119.207C251.864 119.046 250.773 118.758 250.155 119.213C249.424 119.75 249.373 121.318 249.091 122.122C248.468 123.902 247.462 125.277 245.872 126.288C246.524 123.974 247.397 121.585 247.747 119.207C243.577 118.214 245.094 123.552 241.915 125.038C241.957 123.034 242.762 121.152 243.165 119.207C238.851 117.932 240.808 124.188 236.917 124.622C238.568 121.475 236.833 117.753 233.168 120.248C233.672 117.465 236.729 118.043 237.595 116.044C238.886 113.063 234.36 115.822 233.584 116.305C230.129 118.455 231.075 123.524 227.336 124.83Z" fill="#010101"/>
<path fill-rule="evenodd" clip-rule="evenodd" d="M117.996 117.541C118.474 117.692 118.952 117.864 119.454 117.918C122.292 118.222 121.578 114.734 119.041 116.437C118.594 116.737 118.305 117.112 117.996 117.541Z" fill="white"/>
<path fill-rule="evenodd" clip-rule="evenodd" d="M192.555 122.539C193.513 122.162 194.06 121.707 194.221 120.665C193.221 120.949 192.812 121.555 192.555 122.539Z" fill="white"/>
<path fill-rule="evenodd" clip-rule="evenodd" d="M214.84 122.539C215.798 122.162 216.345 121.707 216.506 120.665C215.506 120.949 215.097 121.555 214.84 122.539Z" fill="white"/>
<path fill-rule="evenodd" clip-rule="evenodd" d="M167.213 121.087C166.642 121.47 166.721 122.275 167.386 122.473C168.139 122.697 170.163 122.779 170.829 122.325C171.375 121.953 171.222 121.247 170.657 120.998C169.95 120.688 167.867 120.649 167.213 121.087Z" fill="#010101"/>
<path fill-rule="evenodd" clip-rule="evenodd" d="M224.212 124.83C224.447 123.311 225.623 122.571 225.254 120.873C223.47 121.196 221.534 124.742 224.212 124.83Z" fill="white"/>
<path fill-rule="evenodd" clip-rule="evenodd" d="M252.745 124.83C252.98 123.311 254.156 122.571 253.787 120.873C252.003 121.196 250.067 124.742 252.745 124.83Z" fill="white"/>
<path fill-rule="evenodd" clip-rule="evenodd" d="M233.793 124.83C234.006 123.432 234.833 122.614 234.834 121.081C232.9 121.188 231.347 124.635 233.793 124.83Z" fill="white"/>
<path fill-rule="evenodd" clip-rule="evenodd" d="M229.726 403.613L229.074 400.145C224.618 401.4 226.687 406.9 227.643 410.199C225.966 410.687 223.666 411.126 222.821 412.885C221.282 416.085 225.089 416.97 227.265 415.832C228.84 415.008 229.744 413.281 231.184 412.547C233.512 411.36 236.068 411.965 237.672 409.292C239.628 406.033 236.934 401.998 233.194 402.961C235.544 400.155 235.985 395.704 230.932 396.024C227.662 396.232 223.722 398.828 221.807 401.427C220.586 403.084 219.771 409.03 223.594 408.074C225.872 407.504 223.984 404.906 224.147 403.538C224.431 401.155 227.617 398.373 230.098 398.621C233.157 398.927 231.17 402.604 229.726 403.613Z" fill="#010101"/>
<path fill-rule="evenodd" clip-rule="evenodd" d="M208.438 415.193L208.104 414.983C206.868 416.01 206.281 417.408 204.858 418.303C205.134 416.384 205.624 414.075 204.242 412.438C200.798 408.358 195.134 413.759 195.133 417.669C195.13 425.864 207.744 419.965 208.438 415.193Z" fill="#010101"/>
<path fill-rule="evenodd" clip-rule="evenodd" d="M249.642 402.112L249.94 403.223C253.182 401.42 252.362 398.597 251.589 395.283L251.833 395.147C252.571 396.474 253.34 398.755 254.7 399.545C257.309 401.061 259.165 396.881 259.447 395.062C263.117 398.308 268.245 392.422 269.551 389.123C274.093 392.302 280.501 386.568 279.086 381.585C277.39 383.304 275.966 389.699 272.178 386.385C273.687 385.546 275.435 384.76 275.938 382.945C276.974 379.21 272.716 378.688 270.455 380.416C266.5 383.44 270.186 388.142 267.005 390.858C265.826 387.349 263.15 386.091 260.826 389.507C260.634 387.613 258.4 384.872 257.394 388.097C256.82 389.935 260.314 395.97 256.99 396.827C253.464 397.737 255.291 388.105 250.681 391.354C249.856 391.935 249.501 392.71 249.322 393.685C248.845 396.266 249.503 399.141 247.999 401.456C246.866 403.2 244.598 404.125 242.922 402.658C244.234 401.928 245.758 401.264 246.446 399.835C248.767 395.011 242.214 395.011 239.96 397.906C237.887 400.57 238.737 406.205 242.793 406.39C245.68 406.522 248.006 404.16 249.642 402.112Z" fill="#010101"/>
<path fill-rule="evenodd" clip-rule="evenodd" d="M199.754 419.759C200.831 419.012 202.487 414.605 200.532 413.895C198.191 413.046 199.274 418.906 199.754 419.759Z" fill="white"/>
<path fill-rule="evenodd" clip-rule="evenodd" d="M242.488 401.303C243.363 400.238 243.708 399.35 243.218 398.024C242.231 399.008 242.148 399.984 242.488 401.303Z" fill="white"/>
<path fill-rule="evenodd" clip-rule="evenodd" d="M271.744 385.03C272.619 383.965 272.964 383.077 272.474 381.751C271.488 382.735 271.404 383.711 271.744 385.03Z" fill="white"/>
<path fill-rule="evenodd" clip-rule="evenodd" d="M229.944 405.727C230.501 407.204 230.611 408.762 230.894 410.306C236.753 410.414 235.117 402.992 229.944 405.727Z" fill="white"/>
<path fill-rule="evenodd" clip-rule="evenodd" d="M262.013 390.471C261.247 391.539 262.473 394.489 263.337 393.162C263.928 392.255 263.282 388.699 262.013 390.471Z" fill="white"/>
<circle cx="212.79" cy="417.587" r="0.871814" transform="rotate(-29.0841 212.79 417.587)" fill="#010101"/>
</svg>
